<?xml version="1.0" encoding="UTF-8"?>
<svg width="88px" height="88px" viewBox="0 0 88 88" version="1.1" xmlns="http://www.w3.org/2000/svg" xmlns:xlink="http://www.w3.org/1999/xlink">
    <title>Logo</title>
    <g id="Channels" stroke="none" stroke-width="1" fill="none" fill-rule="evenodd">
        <g id="arte" fill="#FFFFFF">
            <path d="M63.9505348,44.0613268 C63.0804879,44.3462245 62.5994031,45.2725686 62.6403465,46.1545573 C64.2166668,46.173323 65.7895751,46.1153199 67.3641894,46.1153199 C67.2379473,45.6018216 67.1594725,45.042262 66.7824522,44.6396521 C66.1205341,43.8003127 64.8939386,43.7883709 63.9505348,44.0613268 Z M61.5280512,40.8421532 C63.7748194,40.1392918 66.2672479,40.0761708 68.4986623,40.8728608 C69.7986148,41.2925305 70.9586773,42.1284579 71.7400136,43.252695 C72.9273717,44.9416095 73.1457364,47.1201388 72.9222538,49.1246586 C69.5580724,49.1297765 66.192185,49.1297765 62.8280037,49.1246586 C62.8177678,50.0782982 62.8245917,51.0336439 62.8228857,51.9889895 C61.3966912,51.9736357 59.9687907,52.019697 58.5460081,51.9685178 C58.1775176,51.69215 57.9881545,51.2554205 57.7732017,50.8647524 C56.8093262,49.1195407 56.6830841,46.971719 57.2494676,45.0780875 C57.8022033,43.0411541 59.5337672,41.4443622 61.5280512,40.8421532 Z M46.8822616,38 L52.6228652,38 C52.6279832,38.8495752 52.6296891,39.6991504 52.6194533,40.5504316 C53.7573382,40.5691973 54.896929,40.5538436 56.0365199,40.5589615 C56.0382258,41.7650853 56.0382258,42.9712092 56.0365199,44.177333 C54.898635,44.1841569 53.7607501,44.1756271 52.6245712,44.1841569 C52.6143354,46.7857678 52.636513,49.3873786 52.6569847,51.9889895 C51.3280307,52.0623464 49.9751931,52.2158841 48.6598869,51.9309864 C47.7386607,51.758683 46.99315,50.9091077 46.9812081,49.963998 C46.854966,48.0413649 46.8839676,46.1119079 46.8873796,44.1841569 C46.1026314,44.179039 45.3178832,44.179039 44.533135,44.179039 C44.5280171,42.9729152 44.529723,41.7667913 44.531429,40.5589615 C45.3195891,40.5589615 46.1077493,40.5709033 46.8959094,40.5401958 C46.8754377,39.6940325 46.8839676,38.8461633 46.8822616,38 Z M38.7993553,41.9152111 C39.6591663,40.4054238 41.6858638,39.9874601 43.2365945,40.5640794 C43.2502423,41.7702033 43.2417124,42.9746211 43.2417124,44.179039 C42.2863668,44.2046286 41.2900778,44.0766806 40.3756755,44.4246993 C39.6250468,44.7385986 39.1951413,45.5489364 39.1917294,46.3405085 C39.1695517,48.235846 39.1968473,50.1328894 39.1780816,52.0282269 C37.2383888,52.0094612 35.29699,52.0640524 33.3572972,52.0009313 C33.3794748,48.2051384 33.365827,44.4076396 33.3641211,40.6118467 C35.1485702,40.6186706 36.9330193,40.6152586 38.7174685,40.6135527 C38.7055267,41.0485761 38.6714072,41.4938354 38.7993553,41.9152111 Z M21.6935507,40.3695983 C23.9590846,40.1137022 26.3849801,40.2211786 28.4321493,41.3164141 C29.5495625,41.8725617 30.4776125,43.0002108 30.4110795,44.3035751 C30.37696,46.8778904 30.4673766,49.4504997 30.446905,52.0248149 C28.5328018,52.0299329 26.6204045,52.0265209 24.7080073,52.0265209 C24.7045954,50.9466392 24.7011834,49.8650514 24.7114193,48.7834637 C23.8260186,49.0205942 22.933794,49.2628425 22.1012785,49.6483927 C21.6099579,49.9111128 21.0606342,50.3495482 21.1339911,50.9739348 C21.2295257,51.3867805 21.5348951,51.6972679 21.7856733,52.021403 C19.9961062,52.036661 18.2082451,52.021403 16.420384,52.0299329 C15.755054,52.1084077 15.2842051,51.4857271 15.0829002,50.9278735 C14.9208326,50.0697684 14.96007,49.0871272 15.5315714,48.3774418 C16.4152661,47.1832598 17.9677028,46.8454769 19.3393061,46.5639911 C20.3390071,46.4803984 21.3165304,46.2449739 22.3111134,46.1238497 C22.9662075,46.0453749 23.6178897,45.9174269 24.2439823,45.7041801 C24.6994774,45.5233468 24.8137777,44.9245498 24.5800592,44.5287638 C24.394108,44.1602733 23.9573786,44.0237954 23.5803583,43.9470265 C22.8843208,43.8429621 22.1046905,43.8702577 21.5093055,44.2882214 C21.1800524,44.5321757 21.1066955,44.9586693 21.0282207,45.3322777 C19.1942983,45.3373956 17.3603759,45.3356896 15.5281595,45.3339836 C15.7038748,44.045973 16.287318,42.7733162 17.3194325,41.9510365 C18.5340862,40.9172161 20.1547618,40.5726093 21.6935507,40.3695983 Z" id="Logo"></path>
        </g>
    </g>
</svg>