<?xml version="1.0" encoding="UTF-8"?>
<svg width="88px" height="88px" viewBox="0 0 88 88" version="1.1" xmlns="http://www.w3.org/2000/svg" xmlns:xlink="http://www.w3.org/1999/xlink">
    <title>Logo</title>
    <g id="Channels" stroke="none" stroke-width="1" fill="none" fill-rule="evenodd">
        <g id="ZDFneo" fill="#FFFFFF" fill-rule="nonzero">
            <path d="M45.7306173,25 L45.7306173,35.2783171 L66.6193048,30.9068337 L66.6193048,57.6404095 L41.8886875,62.8151086 L41.8886875,58.4436252 L21,62.8151086 L21,30.1746991 L45.7306173,25 Z M43.73,27.461 L23,31.799 L23,60.353 L43.8886875,55.9817481 L43.888,60.353 L64.619,56.015 L64.619,33.368 L43.7306173,37.7401942 L43.73,27.461 Z M37.640502,45.5590036 L37.640502,53.7795248 L32.3325728,54.891943 L32.3325728,48.0539478 C32.328962,47.5030698 32.0762034,47.3004889 31.5634647,47.4106645 L31.094056,47.5101779 L31.094056,55.1549428 L25.7897376,56.2638069 L25.7897376,48.6154879 L24.854531,48.8109608 L24.854531,44.9441527 L29.0394902,44.069856 C29.9566426,43.8779372 30.3754996,44.2973153 30.4910463,45.2640173 L30.5596522,45.2498011 C31.7909474,43.586505 33.7155231,42.8614785 34.6579513,42.6660056 C36.2394976,42.3319248 37.640502,42.9361135 37.640502,45.5590036 Z M62.6888729,51.4125265 L62.6888729,53.4383359 L51.5602757,55.7662397 L51.5602757,53.7404303 L62.6888729,51.4125265 Z M50.2242663,46.4261922 L43.5983818,47.8122723 C43.7680911,48.9282445 44.2013915,49.2054605 44.9632779,49.0455282 C45.5446225,48.9246904 46.1909622,48.5586231 46.7145335,47.9437722 L49.7368034,47.311151 L49.7368034,49.8487438 C48.3249664,51.2241618 46.5014941,52.1553233 44.4216525,52.5889176 C40.749432,53.3601468 38.4673835,51.5582426 38.434886,47.8335966 C38.413221,44.2688829 40.4930627,41.4398578 44.3422141,40.6330881 C48.2816364,39.8121022 50.6178474,42.2928302 50.2242663,46.4261922 Z M63.1655399,42.6624516 C63.1727249,46.276922 61.0495532,49.1130552 57.0884659,49.9411492 C53.3079204,50.7337027 50.957266,48.9460147 50.9680242,45.2142606 C50.9933744,41.6388847 53.1165461,38.8027516 57.0776334,37.9746576 C60.6343071,37.2283067 63.1582816,39.1617108 63.1655399,42.6624516 Z M57.0559684,41.5678037 C56.4276829,41.6993036 56.1063185,42.4811949 56.0990968,44.279545 C56.0882643,46.0778951 56.4312937,46.7887054 57.0559684,46.6572055 C57.658978,46.5292597 57.96951,45.6833954 57.9767316,43.8850453 C57.9875641,42.0866952 57.6625889,41.4398578 57.0559684,41.5678037 Z M44.4794258,44.1978018 C43.9883521,44.3008693 43.6705985,44.7806663 43.5658843,45.8184494 L45.3785241,45.4381658 C45.291864,44.4892341 44.9921646,44.0911803 44.4794258,44.1978018 Z M29.5269531,34.7333625 L29.5269531,36.0696859 L26.8765993,40.0822101 L28.468978,39.7481293 L28.5123081,38.969792 L29.7724899,38.7067922 L29.7724899,40.7965745 L24.8725852,41.8201413 L24.8725852,40.4731558 L27.544604,36.4677397 L26.0461069,36.7804962 L26.0172203,37.4593201 L24.8689743,37.7009956 L24.8689743,35.7071727 L29.5269531,34.7333625 Z M36.0481233,30.5822303 L36.0481233,37.7720766 L36.0517341,37.7720766 C36.0517341,38.0635089 36.1456158,38.145252 36.4164286,38.0883872 L36.6655763,38.0350764 L36.6655763,39.3536296 L35.4631678,39.6059672 C34.8818232,39.726805 34.5929563,39.5419943 34.5568479,39.0266568 L34.4918529,39.0159947 C34.2354835,39.6095213 33.7371881,40.0644399 32.8561441,40.2492506 C31.7042873,40.4909261 30.5163222,39.93294 30.5091005,37.6725632 C30.5127113,35.5081458 31.2782086,34.2713358 32.8597549,33.940809 C33.4555429,33.8164172 33.9899466,33.9976739 34.246316,34.3708493 L34.2932569,34.3601871 L34.2932569,32.2561886 L33.7299664,32.3734723 L33.7299664,31.0655813 L36.0481233,30.5822303 Z M41.8760129,29.4875824 L41.8760129,31.1260002 L40.6916586,31.3747838 L40.6916586,30.8132437 L40.4853896,30.8239058 C40.4172351,30.8292369 40.3450184,30.838122 40.2547475,30.8558923 C39.8864422,30.9340814 39.7022895,31.1544326 39.7022895,31.5595945 L39.7022895,32.6044857 L41.1863432,32.2952832 L41.1863432,33.6173903 L39.7961713,33.9088226 L39.7961713,37.381131 L40.6808261,37.1963203 L40.6808261,38.5184275 L37.4491277,39.1936972 L37.4491277,37.8715901 L38.0557482,37.7436442 L38.0521374,34.2713358 L37.4238519,34.4028357 L37.4238519,33.0807286 L38.0557482,32.9527827 L38.0557482,31.9612023 C38.0557482,30.5786763 38.6082062,29.938947 40.1536441,29.6155283 C40.526949,29.5367924 40.8825629,29.5012098 41.1757556,29.4867671 L41.4464845,29.4785558 L41.4464845,29.4785558 L41.7528073,29.4819626 L41.7528073,29.4819626 L41.8760129,29.4875824 L41.8760129,29.4875824 Z M33.4447104,35.1882811 C32.769484,35.2309298 32.3686812,36.0128211 32.3650703,37.2602932 C32.3650703,38.2980763 32.6683806,38.834738 33.2822227,38.8027516 C33.9466166,38.7743192 34.3077002,38.0990494 34.3040894,36.9262124 C34.3077002,35.7391591 34.0224442,35.1634028 33.4447104,35.1882811 Z" id="Logo"></path>
        </g>
    </g>
</svg>