<?xml version="1.0" encoding="UTF-8"?>
<svg width="88px" height="88px" viewBox="0 0 88 88" version="1.1" xmlns="http://www.w3.org/2000/svg" xmlns:xlink="http://www.w3.org/1999/xlink">
    <title>Logo</title>
    <g id="Channels" stroke="none" stroke-width="1" fill="none" fill-rule="evenodd">
        <g id="HR" fill="#FFFFFF">
            <path d="M63.5092065,33.9018484 L63.5092065,28.2576703 L57.8650152,30.3083855 L57.8650152,31.7006164 L59.7276355,31.0233144 L59.7276355,35.2564455 L63.5092065,33.9018484 L63.5092065,33.9018484 Z M61.2515566,26.8278118 C58.617639,26.8278118 56.4540382,28.9725992 56.4540382,31.6253611 C56.4540382,34.2593062 58.617639,36.4229114 61.2515566,36.4229114 C63.904307,36.4229114 66.0490838,34.2593062 66.0490838,31.6253611 C66.0490838,28.9725992 63.904307,26.8278118 61.2515566,26.8278118 L61.2515566,26.8278118 Z M61.2515566,26 C64.3558795,26 66.8769328,28.5210621 66.8769328,31.6253611 C66.8769328,34.7296602 64.3558795,37.2319124 61.2515566,37.2319124 C58.1472425,37.2319124 55.6450132,34.7296602 55.6450132,31.6253611 C55.6450132,28.5210621 58.1472425,26 61.2515566,26 L61.2515566,26 Z M47.2727754,63.6466588 C39.5026402,63.7783587 30.076869,62.36731 24,59.7333658 L24,57.3628063 C30.3967443,60.0908298 39.0887866,61.5206883 46.8589218,61.3889885 C55.2499216,61.2384788 63.960779,59.8274309 70,57.4568786 L70,59.7521757 C63.2458121,62.1603628 55.5885412,63.4961491 47.2727754,63.6466588 M53.7823929,36.5169836 C53.7259917,36.5169836 50.0008219,36.6110487 47.7807491,37.1190233 C45.2221276,37.7022593 43.5665005,39.2638107 43.3406832,41.6343702 C43.284282,42.0859002 43.265458,42.3869266 43.265458,43.4216936 L43.265458,54.8605541 L47.4986015,54.8605541 L47.4986015,43.1771108 C47.4986015,42.1423447 47.5926507,41.4838534 48.2511456,40.8818137 C49.0225226,40.2045116 50.7533748,40.1104394 51.731745,40.035185 C52.4278171,39.9787395 53.7823929,39.9034851 53.7823929,39.9034851 L53.7823929,36.5169836 M28.0449743,28.3329247 L28.0449743,37.1002126 C28.0449743,37.1002126 30.7918448,36.5169836 33.21884,36.5357934 C37.2261662,36.592238 39.2392369,38.7558361 39.3897581,41.5779256 C39.4274061,42.2928544 39.4085821,42.6879469 39.4085821,43.4593212 L39.4085821,54.8605541 L35.1754386,54.8605541 L35.1754386,43.2147384 C35.1754386,41.7848799 35.2695587,40.0163672 32.0711865,40.035185 C29.7758974,40.035185 28.1766715,40.4867212 28.1766715,40.4867212 L28.1766715,54.8605541 L24.037648,54.8605541 L24.037648,28.5963174 L28.0449743,28.3329247" id="Logo"></path>
        </g>
    </g>
</svg>