<?xml version="1.0" encoding="UTF-8"?>
<svg width="88px" height="88px" viewBox="0 0 88 88" version="1.1" xmlns="http://www.w3.org/2000/svg" xmlns:xlink="http://www.w3.org/1999/xlink">
    <title>Logo</title>
    <g id="Channels" stroke="none" stroke-width="1" fill="none" fill-rule="evenodd">
        <g id="KIKA" fill="#FFFFFF">
            <path d="M67.2787473,42.495763 L67.2787473,38.2485263 L62.8903432,38.2485263 L62.8903432,42.495763 L67.2787473,42.495763 Z M73.414776,35.2555071 L73.414776,52.0625654 C73.41274,52.7561858 72.8473919,53.3228912 72.1537716,53.3228912 L67.2787473,53.3228912 L67.2787473,47.1386756 L62.8903432,47.1386756 L62.8903432,53.3228912 L58.0166764,53.3228912 C57.3237347,53.3228912 56.7583867,52.7561858 56.7563506,52.0639228 L56.7563506,38.2478476 L62.0372309,34.0006108 L72.1537716,34.0006108 C72.8473919,34.0006108 73.41274,34.5632441 73.414776,35.2555071 L73.414776,35.2555071 Z M55.9885495,52.0619546 L55.9885495,49.0254993 L49.323822,43.6570681 L55.9885495,38.2879581 L55.9885495,35.2501454 C55.9865135,34.5694202 55.4347392,34.0101803 54.7526566,34 L52.0188966,34 C51.7603161,34 51.5132732,34.0726197 51.3028796,34.2178592 L45.4675102,39.2550902 L45.4675102,35.2521815 C45.4654741,34.5599186 44.8994474,34 44.205827,34 L39.3321602,34 L39.3321602,53.3229591 L44.205827,53.3229591 C44.8994474,53.3229591 45.4654741,52.7521815 45.4675102,52.0592399 L45.4675102,48.0624394 L51.3028796,53.0955982 C51.5119158,53.240159 51.7596374,53.3229591 52.0188966,53.3229591 L54.7526566,53.3229591 C55.4340605,53.3114214 55.9865135,52.7426799 55.9885495,52.0619546 L55.9885495,52.0619546 Z M38.5640198,51.1922145 L38.5640198,40.2727846 C38.5619837,39.5805216 37.9966356,39.0165309 37.3030153,39.0165309 L32.4273124,39.0165309 L32.4273124,52.0487202 C32.4273124,52.7504848 32.9946965,53.3226197 33.6930677,53.3226197 L35.6402269,53.3226197 C35.8309385,53.2961509 36.0026469,53.2330328 36.1248109,53.1461606 C36.2551193,53.0545375 37.6043533,51.9686349 38.5640198,51.1922145 L38.5640198,51.1922145 Z M33.6860093,34.0003393 C32.9781365,34.0003393 32.429077,34.5650087 32.4270409,35.0516289 L32.4270409,38.2482548 L38.5637483,38.2482548 L38.5637483,34.0003393 L33.6860093,34.0003393 L33.6860093,34.0003393 Z M31.6577468,52.0666376 L31.6577468,49.0301823 L24.9903044,43.6610723 L31.6577468,38.2926411 L31.6577468,35.2555071 C31.6557107,34.5741032 31.0991856,34.0101125 30.417103,34.0006108 L27.6853791,34.0006108 C27.4274772,34.0006108 27.1797557,34.0773027 26.969362,34.2225422 L21.1360287,39.2590944 L21.1360287,34.0006108 L16.2610045,34.0006108 C15.5673841,34.0006108 15.0013574,34.5646015 15,35.2582218 L15,52.0646015 C15.0013574,52.7568645 15.5673841,53.3228912 16.2610045,53.3228912 L21.1360287,53.3228912 L21.1360287,48.0630502 L26.969362,53.1002812 C27.179077,53.244842 27.4261198,53.3228912 27.6853791,53.3228912 L30.4198177,53.3228912 C31.100543,53.3113535 31.6557107,52.7473628 31.6577468,52.0666376 L31.6577468,52.0666376 Z" id="Logo"></path>
        </g>
    </g>
</svg>