<?xml version="1.0" encoding="UTF-8"?>
<svg width="88px" height="88px" viewBox="0 0 88 88" version="1.1" xmlns="http://www.w3.org/2000/svg" xmlns:xlink="http://www.w3.org/1999/xlink">
    <title>Logo</title>
    <g id="Channels" stroke="none" stroke-width="1" fill="none" fill-rule="evenodd">
        <g id="NDR" fill="#FFFFFF">
            <path d="M74.3409645,42.2068694 L71.3491144,43.2790324 L71.3491144,39.9309737 L69.8681987,40.4668373 L69.8681987,39.3602571 L74.3409645,37.7522305 L74.3409645,42.2068694 L74.3409645,42.2068694 Z M72.5563827,36.6081834 C70.4624792,36.6081834 68.7644727,38.3081346 68.7644727,40.4049734 C68.7644727,42.5022479 70.4624792,44.2021991 72.5563827,44.2021991 C74.6507212,44.2021991 76.3482927,42.5022479 76.3482927,40.4049734 C76.3482927,38.3081346 74.6507212,36.6081834 72.5563827,36.6081834 Z M72.5563827,35.9551268 C75.0105089,35.9551268 77,37.9474069 77,40.4049734 C77,42.86254 75.0105089,44.85482 72.5563827,44.85482 C70.1022565,44.85482 68.1127654,42.86254 68.1127654,40.4049734 C68.1127654,37.9474069 70.1022565,35.9551268 72.5563827,35.9551268 Z M59.9191336,40.8915202 L57.4171517,40.8906489 L57.4171517,45.4890561 L59.9191336,45.4890561 C61.4448596,45.4890561 62.4385175,44.6233966 62.4385175,43.0776696 C62.4385175,41.5315069 61.734604,40.8915202 59.9191336,40.8915202 Z M59.6319995,48.6977031 L57.4937208,48.7107729 L57.4937208,55.5345391 L53.5647695,55.5345391 L53.5647695,37.7399448 L59.7577294,37.7399448 C64.3927694,37.7399448 66.141677,39.6180816 66.2073698,43.1255924 C66.2508749,45.4315487 65.4081799,47.1467481 63.2816476,47.9906244 L67.0478895,55.5345391 L62.8022207,55.5345391 L59.6319995,48.6977031 Z M44.7279139,41.1065191 L42.8424001,41.1052122 L42.8424001,52.1810346 L44.7279139,52.1810346 C46.5964606,52.1810346 47.9090114,51.3985866 47.9090114,48.9122663 L47.9090114,44.3356422 C47.9090114,41.9747925 46.7160998,41.1065191 44.7279139,41.1065191 L44.7279139,41.1065191 Z M36.706432,55.5344519 L38.8107767,55.5344519 L38.8107767,63.1367452 L36.706432,63.1367452 L36.706432,55.5344519 Z M38.8107767,37.7398577 L38.8103417,37.739727 L45.0981428,37.7375487 C49.3699147,37.7375487 51.453377,39.7110953 51.7357255,43.9391902 L51.7357255,49.2943415 C51.4124821,53.8217359 49.3699147,55.5338856 45.0981428,55.5338856 L38.8103417,55.5338856 L38.8103417,37.7398577 L36.706432,37.7398577 L36.706432,21 L38.8107767,21 L38.8107767,37.7398577 Z M32.9370142,37.7398141 L36.7063015,37.7398141 L36.7063015,55.534844 L32.5215399,55.534844 L26.7692873,45.1595653 L26.7692873,55.534844 L23,55.534844 L23,37.7389428 L26.9324316,37.7393785 L32.9370142,48.8234785 L32.9370142,37.7398141 Z" id="Logo"></path>
        </g>
    </g>
</svg>