<?xml version="1.0" encoding="UTF-8"?>
<svg width="88px" height="88px" viewBox="0 0 88 88" version="1.1" xmlns="http://www.w3.org/2000/svg" xmlns:xlink="http://www.w3.org/1999/xlink">
    <title>Logo</title>
    <g id="Channels" stroke="none" stroke-width="1" fill="none" fill-rule="evenodd">
        <g id="BR" fill="#FFFFFF">
            <path d="M68.5556379,36.0873458 L68.5556379,30.3248109 L62.7597492,32.4047293 L62.7597492,33.8369394 L64.6787813,33.1429146 L64.6787813,37.4747332 L68.5556379,36.0873458 L68.5556379,36.0873458 Z M66.2418652,28.8446745 C63.5287836,28.8446745 61.3304714,31.0438199 61.3304714,33.7560658 C61.3304714,36.4697794 63.5287836,38.6695277 66.2418652,38.6695277 C68.9547115,38.6695277 71.1559527,36.4697794 71.1559527,33.7560658 C71.1559527,31.0438199 68.9547115,28.8446745 66.2418652,28.8446745 L66.2418652,28.8446745 Z M66.2418652,28 C69.4238565,28 72,30.5769768 72,33.7560658 C72,36.9357844 69.4238565,39.5135993 66.2418652,39.5135993 C63.0634033,39.5135993 60.4857994,36.9357844 60.4857994,33.7560658 C60.4857994,30.5769768 63.0634033,28 66.2418652,28 L66.2418652,28 L66.2418652,28 Z M53.0718048,45.4086723 C56.4338871,44.246163 58.8395716,41.5656018 58.8395716,37.58436 C58.8395716,36.5873091 58.3345778,34.1662131 56.5016219,32.6045995 C55.2936618,31.5752634 53.5467829,30.3571261 47.9076431,30.2210237 C46.7415718,30.192475 43.1963233,30.3187734 43.1963233,30.3187734 L43.1963233,30.5225821 C44.1975139,31.2872455 45.2739421,32.5545749 45.7916431,34.0155342 C46.3303899,33.9978248 47.1458836,33.9544699 47.9516026,33.9978248 C50.2161824,34.1184881 51.2021636,34.5419755 52.2225581,35.3441582 C53.2489618,36.1498771 53.8010487,37.5336968 53.7943782,38.7893861 C53.7879115,40.502512 52.9746872,42.2729382 50.5014968,43.2808293 C48.5001526,44.0969485 46.0798907,44.2763791 46.0798907,44.2763791 L46.0782192,44.9005724 C46.0782192,44.9005724 47.5274782,45.5945696 48.9757303,47.5098612 C50.2234809,49.1581896 57.4655194,59.8189714 57.4655194,59.8189714 L63.448736,59.8189714 C63.448736,59.8189714 53.7797692,46.3496562 53.0718007,45.4086723 L53.0718007,45.4086723 L53.0718048,45.4086723 Z M33.9339653,55.7053677 L30.5835545,55.7053677 L30.5835545,33.9730133 C30.6304463,33.9730133 32.0870362,33.9544699 32.9942423,33.9544699 C36.734991,33.9544699 38.8090738,35.8889418 38.8672349,38.5438598 C38.9032874,40.1554972 38.4254053,41.7017042 36.7814511,42.8389955 C35.4395161,43.769115 33.5698749,44.0462935 33.5698749,44.0462935 L33.5698749,44.746157 C33.5698749,44.746157 36.1616587,45.1321266 37.4775465,45.7475488 C39.9282533,46.8915098 40.6560026,48.6692629 40.6729071,50.9675949 C40.7001908,54.6018544 37.1916276,55.7053677 33.9339653,55.7053677 L33.9339653,55.7053677 L33.9339653,55.7053677 Z M26,30.3096022 L26,59.8188902 L32.5480422,59.8188902 C41.1443208,59.8188902 45.6886901,56.6514714 45.6886901,50.6571819 C45.6886901,47.0885881 43.4476559,44.7277304 39.9201175,43.9086657 C42.2184496,42.5485913 43.6946183,40.5493129 43.6946183,37.5702986 C43.6946183,34.3845409 41.8037308,30.1738447 33.8845729,30.1738447 C30.5506356,30.1738447 26.8967989,30.2815712 26,30.3095162 L26,30.3096055 L26,30.3096022 Z" id="Logo"></path>
        </g>
    </g>
</svg>