<?xml version="1.0" encoding="UTF-8"?>
<svg width="88px" height="88px" viewBox="0 0 88 88" version="1.1" xmlns="http://www.w3.org/2000/svg" xmlns:xlink="http://www.w3.org/1999/xlink">
    <title>Logo</title>
    <g id="Channels" stroke="none" stroke-width="1" fill="none" fill-rule="evenodd">
        <g id="tageschau24" fill="#FFFFFF">
            <path d="M67.7470232,38.4505954 C64.542457,38.4505954 61.9446417,41.0484106 61.9446417,44.2529768 C61.9446417,47.457543 64.542457,50.0553583 67.7470232,50.0553583 C70.9515894,50.0553583 73.5494046,47.457543 73.5494046,44.2529768 C73.5494046,41.0484106 70.9515894,38.4505954 67.7470232,38.4505954 Z M67.7470232,37 C71.7527325,37 75,40.2472675 75,44.2529768 C75,48.2586861 71.7527325,51.5059536 67.7470232,51.5059536 C63.7413139,51.5059536 60.4940464,48.2586861 60.4940464,44.2529768 C60.4940464,40.2472675 63.7413139,37 67.7470232,37 Z M70.3438479,42.8477022 L68.8284938,45.088354 L70.3438479,45.088354 L70.3438479,42.8477022 Z M70.1171924,41.7144349 L71.6519741,41.7144349 L71.6519741,45.0883643 L72.4096511,45.0883643 L72.4096511,46.0921245 L71.6519741,46.0921245 L71.6519741,47.0635053 L70.3438479,47.0635053 L70.3438479,46.0921245 L67.9736787,46.0921245 L67.9736787,44.9070399 L70.1171924,41.7144349 Z M65.5322749,41.6172968 C66.1727666,41.6172968 66.6680165,41.7562245 67.0217255,42.0382285 C67.3778177,42.3202429 67.5527429,42.7125709 67.552747,43.2168373 C67.5527429,43.508409 67.4766509,43.7859473 67.3260915,44.039273 C67.1755238,44.2902157 66.8633702,44.6264989 66.3806142,45.0495091 L65.2343848,46.0532693 L67.5916023,46.0532693 L67.5916023,47.0635053 L63.6996031,47.0635053 L63.6996031,46.0532693 L65.6553165,44.3242114 C65.8297775,44.1664799 65.9602192,44.0149921 66.0438688,43.8644245 C66.1275122,43.713863 66.1669083,43.5542022 66.1669104,43.3916858 C66.1669083,43.1407494 66.0840317,42.9423888 65.9143514,42.7894297 C65.7470563,42.636481 65.5204774,42.5563025 65.2408607,42.5562983 C65.0257664,42.5563025 64.7907078,42.6055647 64.5349906,42.6987675 C64.2792693,42.7895872 64.0041224,42.9251184 63.7125548,43.1067474 L63.7125548,41.9346146 C64.0232413,41.8318544 64.3350861,41.7540673 64.6386046,41.7014832 C64.9421209,41.6465201 65.2407052,41.6172968 65.5322749,41.6172968 Z M58.1238772,41.4359724 L58.1238772,43.7284312 L56.5826196,44.2724044 L56.5826196,42.5562983 L55.8249426,42.8282849 L55.8249426,42.2648841 L58.1238772,41.4359724 Z M57.1978274,40.8531439 C56.1288962,40.8531439 55.2485899,41.7239239 55.2485899,42.7959056 C55.2486334,43.8751237 56.1288671,44.751619 57.1978274,44.751619 C58.2667878,44.751619 59.147065,43.8751237 59.147065,42.7959056 C59.147065,41.7239529 58.2667878,40.8531439 57.1978274,40.8531439 Z M57.1978274,40.5163986 C58.4566582,40.5163986 59.4773344,41.5395926 59.4773344,42.7959056 C59.4773344,44.0596042 58.4566582,45.0883643 57.1978274,45.0883643 C55.9384952,45.0883643 54.9183205,44.0596042 54.9183205,42.7959056 C54.9183205,41.5395926 55.9384952,40.5163986 57.1978274,40.5163986 Z M50.3787341,42.8282849 L51.4602047,42.8282849 L51.4602047,45.5416754 C51.4602047,45.985112 51.5818993,46.2475454 51.9912262,46.2475454 C52.5455236,46.2475454 52.9690829,45.6165655 52.9690829,44.8746605 L52.9690829,42.8282849 L54.0635053,42.8282849 L54.0635053,47.0635053 L53.0403175,47.0635053 C53.0403175,46.8673703 53.0494853,46.5404994 53.0921245,46.31878 L53.0791728,46.3058283 C52.8233437,46.808959 52.3407949,47.1606434 51.6415291,47.1606434 C50.6864344,47.1606434 50.3787341,46.5490911 50.3787341,45.8071861 L50.3787341,42.8282849 Z M48.0992271,45.1919783 C46.9479952,45.1919783 46.6939628,45.5243636 46.6939628,45.865469 C46.6939628,46.1383529 46.8770818,46.31878 47.192605,46.31878 C47.7298454,46.31878 48.0992271,45.8072504 48.0992271,45.2955922 L48.0992271,45.1919783 Z M47.4386881,42.7376124 L47.4386881,42.7376124 C48.8031098,42.7376124 49.1871736,43.2866503 49.1871736,44.2076353 L49.1871736,45.9755484 C49.1871736,46.3166539 49.1960222,46.7138621 49.2130771,47.063495 L48.1834134,47.063495 C48.1834134,46.8161933 48.1946348,46.5728684 48.2287445,46.351149 L48.2157928,46.3446835 C48.0111303,46.8222319 47.4933797,47.1541675 46.8623355,47.1541675 C46.0948483,47.1541675 45.6513474,46.7160525 45.6513474,46.0338417 C45.6513474,45.0190528 46.6580564,44.4796323 48.0992271,44.4796323 L48.0992271,44.2529768 C48.0992271,43.8095402 47.8843048,43.5794861 47.2703154,43.5794861 C46.8865708,43.5794861 46.3786324,43.7050932 46.0204721,43.9097556 L45.923334,42.9966576 C46.3497158,42.8431598 46.8929203,42.7376124 47.4386881,42.7376124 Z M41.0534782,40.8401922 L41.0534782,40.8401922 L42.1414351,40.8401922 L42.1414351,42.6599226 C42.1414351,42.9157517 42.1234187,43.273912 42.0637246,43.5212136 L42.0831418,43.5276791 C42.3304435,43.0501307 42.8188258,42.7376227 43.4754544,42.7376227 C44.4305491,42.7376227 44.7382494,43.3491751 44.7382494,44.09108 L44.7382494,47.0635053 L43.6503029,47.0635053 L43.6503029,44.3565908 C43.6503029,43.9131541 43.5330326,43.6442448 43.1322331,43.6442448 C42.5779358,43.6442448 42.1414247,44.2752248 42.1414247,45.0171297 L42.1414247,47.0635053 L41.0534782,47.0635053 L41.0534782,40.8401922 Z M39.3114686,42.7505745 C39.6014073,42.7505745 39.9128274,42.7968671 40.1857113,42.873616 L40.0756215,43.8190934 C39.8453747,43.733817 39.5778766,43.6636724 39.3049927,43.6636724 C38.6142544,43.6636724 38.2623773,44.1766776 38.2623773,44.9782745 C38.2623773,45.7031246 38.5477633,46.1957385 39.2726133,46.1957385 C39.5625521,46.1957385 39.8777541,46.1338001 40.1080008,46.014414 L40.1921872,46.9469396 C39.9022484,47.0577983 39.4849701,47.1412158 39.0330061,47.1412158 C37.8561919,47.1412158 37.1226238,46.529535 37.1226238,45.0883643 C37.1226238,43.7665798 37.8106039,42.7505745 39.3114686,42.7505745 Z M35.4194694,42.7376227 C35.666771,42.7376227 35.9342691,42.7662181 36.1900982,42.8088573 L36.1577188,43.6701483 C35.9189446,43.6019268 35.6384948,43.5600585 35.3741383,43.5600585 C34.9477565,43.5600585 34.7459787,43.7295854 34.7459787,43.9939419 C34.7459787,44.6846802 36.4815124,44.38243 36.4815124,45.7553792 C36.4815124,46.5910879 35.750317,47.1541675 34.5905578,47.1541675 C34.283562,47.1541675 33.9762472,47.1190963 33.7033633,47.0764571 L33.7292668,46.1827867 C33.9936233,46.2510082 34.3183142,46.3058283 34.6423647,46.3058283 C35.0602191,46.3058283 35.3288072,46.1339286 35.3288072,45.8525172 C35.3288072,45.1020849 33.6191769,45.5322506 33.6191769,44.09108 C33.6191769,43.3491751 34.2256004,42.7376227 35.4194694,42.7376227 Z M31.7346981,42.7505745 L31.7346878,42.7505745 C31.9990443,42.7505745 32.2992429,42.7965459 32.5635994,42.8477126 L32.5441822,43.3981617 C32.2627708,43.3043579 31.9598782,43.2556925 31.6699394,43.2556925 C31.0474226,43.2556925 30.7374138,43.5113288 30.7374138,43.9291832 C30.7374138,44.9439721 32.8096929,44.3660155 32.8096929,45.8071861 C32.8096929,46.5576185 32.1438966,47.1412158 31.0353039,47.1412158 C30.7197808,47.1412158 30.3974627,47.1081961 30.1416336,47.0570295 L30.1545853,46.4677251 C30.4274693,46.544474 30.7739605,46.6037184 31.1065385,46.6037184 C31.7205279,46.6037184 32.1426781,46.3348091 32.1426781,45.8913725 C32.1426781,44.8680562 30.0833507,45.5033341 30.0833507,43.9939419 C30.0833507,43.2861488 30.6602152,42.7505745 31.7346981,42.7505745 Z M27.5059536,43.2362649 C26.9090191,43.2362649 26.4814831,43.6720072 26.3791519,44.3371632 L28.5291414,44.3371632 C28.5461963,43.6805346 28.1540548,43.2362649 27.5059536,43.2362649 Z M27.538333,42.7505745 L27.5383226,42.7505745 C28.7066093,42.7505745 29.1961459,43.56102 29.1961459,44.49906 C29.1961459,44.5758089 29.1937835,44.6884621 29.1767286,44.8163777 L26.3467725,44.8163777 C26.3041333,46.0869956 26.8054694,46.6166701 27.7520368,46.6166701 C28.1954734,46.6166701 28.6669293,46.5067088 28.9824525,46.3446835 L29.0407353,46.8886568 C28.6484633,47.0506821 28.1706599,47.1412158 27.6419469,47.1412158 C26.3628016,47.1412158 25.6797577,46.4556085 25.6797577,44.9717986 C25.6797577,43.7011807 26.3615188,42.7505745 27.538333,42.7505745 Z M22.169835,47.0829226 L22.169835,47.0829226 C21.8031466,47.2705302 21.5675789,47.5795774 21.5675789,47.9377377 C21.5675789,48.4835056 22.0966765,48.7731252 22.8044704,48.7731252 C23.7339829,48.7731252 24.2809693,48.3775209 24.2809693,47.8146961 C24.2809693,47.3627321 23.9641655,47.0893985 23.3160643,47.0893985 L22.4418216,47.0893985 C22.3565452,47.0893985 22.2465837,47.0914707 22.169835,47.0829226 Z M22.7461876,43.2492166 C22.094123,43.30115 21.710048,43.7341258 21.710048,44.3177355 C21.710048,45.0084738 22.1270041,45.3797786 22.8433257,45.3797786 C23.542592,45.3797786 23.9960309,44.9999464 23.9960309,44.3177355 C23.9960309,43.6355247 23.5814472,43.2492166 22.8821809,43.2492166 C22.8363448,43.2492166 22.7896586,43.2457559 22.7461876,43.2492166 Z M22.9145603,42.7505745 C23.1533341,42.7505745 23.3339531,42.7771183 23.5556716,42.8282849 L24.9933152,42.8282849 L24.9933152,43.333403 L24.2291623,43.333403 C24.476464,43.529538 24.6371423,43.8586532 24.6371423,44.2594527 C24.6371423,45.1633829 24.01097,45.8525172 22.7915187,45.8525172 C22.5953831,45.8525172 22.3686635,45.8283441 22.2151661,45.7942344 C22.0019752,45.8709833 21.8978483,46.0292889 21.8978483,46.1827867 C21.8978483,46.4300884 22.1397635,46.5389597 22.6684771,46.5389597 L23.4909129,46.5389597 C24.411898,46.5389597 24.9156048,46.9886152 24.9156048,47.7305202 C24.9156048,48.6259229 23.9991083,49.2912053 22.6943806,49.2912053 C21.6198983,49.2912053 20.9264675,48.8579643 20.9264675,48.0478379 C20.9264675,47.5191249 21.2574422,47.1256986 21.6582411,46.9210361 C21.3938844,46.8016501 21.2308335,46.5787122 21.2308335,46.3058283 C21.2308335,46.0158895 21.4051049,45.7558288 21.7035722,45.6193858 C21.2771904,45.3720842 21.0689367,44.934738 21.0689367,44.3889701 C21.0689367,43.5020968 21.7633292,42.7505745 22.9145603,42.7505745 Z M19.1326509,45.0818884 C17.5379826,45.0818884 17.1963652,45.5856595 17.1963652,45.9949864 C17.1963652,46.3787311 17.4714293,46.623146 17.8892835,46.623146 C18.6397156,46.623146 19.1326509,45.8800247 19.1326509,45.1466472 L19.1326509,45.0818884 Z M18.2778358,42.7505745 C19.4461221,42.7505745 19.7802381,43.3283383 19.7802381,44.1299352 L19.7802381,45.7942344 C19.7802381,46.2120887 19.776135,46.6882902 19.7931899,47.0635053 L19.1650303,47.0635053 C19.1650303,46.7394548 19.1677232,46.4171366 19.2103614,46.169835 L19.1909338,46.169835 C18.9862705,46.7070754 18.4392842,47.1412158 17.7144349,47.1412158 C17.0407515,47.1412158 16.5552538,46.7852355 16.5552538,46.1115521 C16.5552538,45.2246788 17.4782892,44.6091498 19.1326509,44.6091498 L19.1326509,44.2594527 C19.1326509,43.619879 18.9011229,43.2621684 18.167746,43.2621684 C17.7584195,43.2621684 17.2477875,43.3925189 16.8725715,43.6312931 L16.8142887,43.0678922 C17.2150876,42.8888121 17.706484,42.7505745 18.2778358,42.7505745 Z M14.5606852,41.2416963 L14.5606852,42.8282849 L15.8040526,42.8282849 L15.8040526,43.333403 L14.5606852,43.333403 L14.5606852,45.6193858 C14.5606852,46.3783456 14.6986658,46.571339 15.2017965,46.571339 C15.4149874,46.571339 15.6334999,46.5447952 15.8040526,46.4936286 L15.8040526,47.0505536 C15.5823341,47.1017202 15.2848288,47.1347399 15.0204721,47.1347399 C14.1677083,47.1347399 13.9195738,46.7567666 13.9195738,45.8784207 L13.9195738,43.333403 L13,43.333403 L13,42.8282849 L13.9195738,42.8282849 L13.9195738,41.4230207 L14.5606852,41.2416963 Z" id="Logo"></path>
        </g>
    </g>
</svg>