<?xml version="1.0" encoding="UTF-8"?>
<svg width="88px" height="88px" viewBox="0 0 88 88" version="1.1" xmlns="http://www.w3.org/2000/svg" xmlns:xlink="http://www.w3.org/1999/xlink">
    <title>Logo</title>
    <g id="Channels" stroke="none" stroke-width="1" fill="none" fill-rule="evenodd">
        <g id="MDR" fill="#FFFFFF" fill-rule="nonzero">
            <path d="M72.0033235,38.7038311 L69.7371512,39.5123033 L69.7371512,36.9888907 L68.6224393,37.3931291 L68.6224393,36.5601585 L72.0033235,35.3474519 L72.0033235,38.7038311 Z M70.6558709,34.4899823 C69.0756777,34.4899823 67.7894727,35.7639378 67.7894727,37.3441317 C67.7894727,38.924321 69.0756777,40.1982765 70.6558709,40.1982765 C72.2360641,40.1982765 73.5100196,38.924321 73.5100196,37.3441317 C73.5100196,35.7639378 72.2360641,34.4899823 70.6558709,34.4899823 Z M70.6558709,34 C72.5055533,34 74,35.4944454 74,37.3441317 C74,39.1938135 72.5055533,40.6882588 70.6558709,40.6882588 C68.8061885,40.6882588 67.2994923,39.1938135 67.2994923,37.3441317 C67.2994923,35.4944454 68.8061885,34 70.6558709,34 Z M66.4173623,42.9133728 C66.987388,42.8143684 67.5674141,42.7883672 68.145516,42.7928674 C68.1449401,43.6569063 68.1464402,44.5209453 68.1444401,45.3849842 C67.1173938,45.3884844 66.1418498,45.801003 65.280811,46.3330269 C63.8392461,47.2310674 62.6421921,48.4526224 61.4711394,49.6686773 C60.8451111,50.3092061 60.2375838,50.9677358 59.6170558,51.6127649 C59.5005505,51.72577 59.2695401,51.6497665 59.3060418,51.4672583 C59.3010416,49.7176795 59.3045417,47.9676006 59.3040417,46.2180217 C59.3135421,45.9385091 59.288041,45.624495 59.0830317,45.4134855 C58.9070238,45.2154766 58.6290113,45.1554739 58.3754998,45.1534738 C57.7444714,45.1524737 57.113943,45.1534738 56.4834146,45.1529737 C56.4819145,44.4454419 56.4824678,43.73791 56.4834146,43.0298781 C57.9809821,43.029378 59.4785496,43.0298781 60.9766171,43.0298781 C61.2911312,43.0228777 61.6206461,43.1218822 61.8441562,43.3523926 C62.0506655,43.5704024 62.1321691,43.8764162 62.1396695,44.1704295 C62.1426696,44.5874483 62.1356693,45.0044671 62.1426696,45.4214858 C62.7706979,44.8109583 63.4577289,44.2564333 64.2082627,43.8039129 C64.9007939,43.4138954 65.6253266,43.0448787 66.4173623,42.9133728 Z M48.9400746,37.813143 C48.9420747,37.1061111 48.9360744,36.3990792 48.9430748,35.6920474 C50.4536428,35.6950475 51.9637109,35.6920474 53.4737789,35.6935474 C53.7702923,35.6975476 54.0793062,35.7920519 54.2928159,36.0055615 C54.5153259,36.2315717 54.6043299,36.5585864 54.5983296,36.8696004 C54.5968296,41.2367973 54.5993297,45.6039941 54.5968296,49.9706909 C54.6338312,50.1536991 54.4008207,50.2242023 54.2873156,50.1096971 C52.8622514,48.8591408 51.3836847,47.6705872 49.8911175,46.5020345 C49.2325878,46.0130125 48.4900543,45.6094943 47.6770177,45.4584875 C46.7799773,45.2854797 45.8214341,45.423986 45.0193979,45.8650058 C44.1373582,46.3400272 43.4583276,47.1670645 43.1438134,48.1161073 C42.8708011,48.9026427 42.8943022,49.7616814 43.0658099,50.5677178 C43.2643188,51.5027599 43.7178393,52.3622986 44.2613638,53.1413338 C43.2053162,53.1508342 42.1487686,53.1433338 41.0922209,53.1453339 C40.294685,51.8972777 40.0166725,50.3772092 40.116677,48.9146433 C40.3811889,46.445532 42.0517642,44.1299276 44.3948698,43.2438877 C45.4984195,42.8183685 46.7109742,42.7063635 47.8815269,42.85037 C49.3280921,43.0243778 50.6851533,43.7329097 51.6981989,44.7734566 C51.7061993,42.7713664 51.700199,40.7692762 51.7011991,38.767186 C51.7061993,38.4646723 51.612195,38.1221569 51.3356826,37.9591495 C51.0021676,37.7561404 50.5961493,37.8376441 50.2271326,37.8261436 C49.7981133,37.8041426 49.3680939,37.8436443 48.9400746,37.813143 Z M23.1309115,43.1283825 C24.1299565,42.7533656 25.250007,42.673362 26.2780533,42.9778757 C26.9885853,43.1873852 27.6301143,43.6324052 28.0566335,44.2409326 C28.2496422,44.5059446 28.3886484,44.8049581 28.5091539,45.1094718 C29.6247041,43.8299141 31.240777,42.9988767 32.9298531,42.8313691 C33.8638952,42.7218642 34.8454394,42.8158684 35.6894775,43.2538882 C36.8150282,43.8154135 37.6155643,44.9349639 37.8560751,46.1615192 C38.0025817,46.8205489 37.9620799,47.4980794 37.9675801,48.1676096 C37.9670801,48.8321396 37.9680802,49.4961695 37.9670801,50.1606994 C37.0255377,50.1616995 36.0844953,50.1616995 35.1429528,50.1606994 C35.1424528,49.3471628 35.1424528,48.5336261 35.1429528,47.7200894 C35.1429528,47.222567 35.1319523,46.7015435 34.901442,46.2485231 C34.7264341,45.8800065 34.3854187,45.6009939 33.9944011,45.4889889 C33.2683684,45.2739792 32.4743326,45.4104854 31.8088026,45.7510007 C30.9212626,46.1985209 30.2012301,46.9015525 29.4916982,47.5835833 C28.6471601,48.4076204 27.8286232,49.2581588 27.0360875,50.1311981 C26.937083,50.2532036 26.713573,50.196701 26.7190732,50.0286935 C26.7100728,49.1421535 26.7215733,48.2551135 26.713573,47.3685736 C26.7095728,46.8750514 26.5920675,46.3585281 26.2680529,45.9735107 C25.9850401,45.6364955 25.5550207,45.4604876 25.1265014,45.4074852 C24.4419706,45.314981 23.7479393,45.5079897 23.1594128,45.8545054 C22.3573766,46.3220264 21.6838463,46.9725557 21.0213164,47.6145847 C19.6972568,48.8916422 18.4442003,50.2387029 17.172643,51.5667628 C17.0781387,51.7082692 16.8101266,51.6612671 16.8366278,51.4697584 C16.8306276,49.6701773 16.8361278,47.8700962 16.8341277,46.0700151 C16.8261274,45.8295042 16.7711249,45.5724927 16.597117,45.3954847 C16.4226092,45.2189767 16.1650976,45.1574739 15.9240867,45.1539738 C15.2830578,45.1499736 14.6415289,45.157974 14,45.1499736 C14.0060003,44.4424417 13.9964998,43.7354099 14.0050002,43.028378 C15.5110681,43.0323782 17.017636,43.028378 18.5242039,43.0298781 C18.8247174,43.027378 19.1397316,43.1198821 19.3547413,43.339392 C19.5752513,43.5534017 19.6617552,43.8699159 19.6622552,44.1704295 C19.6662554,44.5879483 19.659255,45.0059671 19.6657553,45.4234859 C20.6593001,44.449442 21.8198524,43.6154045 23.1309115,43.1283825 L23.1309115,43.1283825 Z" id="Logo"></path>
        </g>
    </g>
</svg>