<?xml version="1.0" encoding="UTF-8"?>
<svg width="88px" height="88px" viewBox="0 0 88 88" version="1.1" xmlns="http://www.w3.org/2000/svg" xmlns:xlink="http://www.w3.org/1999/xlink">
    <title>Logo</title>
    <g id="Channels" stroke="none" stroke-width="1" fill="none" fill-rule="evenodd">
        <g id="phoenix" fill="#FFFFFF">
            <path d="M64.4716982,40.2787389 L67.3567871,44.2579499 L64.1709609,48.6730546 L66.5733489,48.6730546 L68.5597364,45.9196114 L70.5549003,48.6730546 L73,48.6730546 L69.7796533,44.2292804 L72.6272964,40.2787389 L70.2231531,40.2787389 L68.5737786,42.5670339 L66.9150426,40.2787389 L64.4716982,40.2787389 L64.4716982,40.2787389 Z M61.143285,40.241176 L61.143285,48.6337364 L63.2502015,48.6337364 L63.2502015,40.241176 L61.143285,40.241176 Z M52.0491992,40.2409419 L52.0491992,48.6335024 L54.1543604,48.6335024 L54.1543604,45.2668827 C54.1543604,44.3933402 54.1853703,43.8258009 54.2468049,43.5636797 C54.3638234,43.0610856 54.5767969,42.6667336 54.8810447,42.3812087 C55.1870479,42.0950986 55.5515602,41.9523362 55.9775072,41.9523362 C56.3057439,41.9523362 56.5824924,42.0401 56.8059976,42.2109469 C57.0277475,42.3841341 57.1839671,42.6339684 57.2746563,42.9622051 C57.3641754,43.292197 57.4092275,43.9574467 57.4092275,44.957369 L57.4092275,48.6335024 L59.4915701,48.6335024 L59.4915701,43.0874148 C59.4915701,42.1208427 59.2475867,41.3894776 58.75962,40.8968301 C58.1786236,40.3164188 57.4724174,40.0244579 56.6427569,40.0244579 C56.2355328,40.0244579 55.8400106,40.1034453 55.4515095,40.260835 C55.0647636,40.4188099 54.6317955,40.6978988 54.1543604,41.1010272 L54.1543604,40.2409419 L52.0491992,40.2409419 L52.0491992,40.2409419 Z M49.0453366,43.3873915 L44.4810334,43.3873915 C44.7179957,42.8684148 44.9760213,42.5056577 45.2545251,42.3014606 C45.6980249,41.9720538 46.2117357,41.8064727 46.7974129,41.8064727 C47.3403783,41.8064727 47.814888,41.9527457 48.2238673,42.2470471 C48.6328467,42.5401782 48.9078399,42.9210731 49.0453366,43.3873915 L49.0453366,43.3873915 Z M51.1522531,45.0467125 L51.1586891,44.6447543 C51.1586891,43.2569159 50.7467843,42.138805 49.9165386,41.2945172 C49.0898036,40.447889 48.0161596,40.0242823 46.6944367,40.0242823 C45.450531,40.0242823 44.4178435,40.447889 43.5928637,41.2945172 C42.7661286,42.138805 42.3536387,43.2025024 42.3536387,44.4832689 C42.3536387,45.7324404 42.7678839,46.772149 43.5963742,47.6041499 C44.4225242,48.4338105 45.4932427,48.8498109 46.8096998,48.8498109 C47.6586684,48.8498109 48.3906186,48.6988572 49.0073056,48.3981198 C49.6245777,48.0991378 50.1535009,47.6334045 50.5970007,47.0061858 L48.8218314,46.1724297 C48.2566325,46.7224162 47.5814362,46.9991647 46.7962427,46.9991647 C46.1362589,46.9991647 45.5962189,46.8218818 45.1720272,46.4679011 C44.7472503,46.117431 44.4862993,45.6435064 44.3903442,45.0467125 L51.1522531,45.0467125 L51.1522531,45.0467125 Z M37.1281231,42.0075689 C37.795128,42.0075689 38.3462847,42.2334144 38.7757423,42.68218 C39.2057849,43.1315307 39.4205137,43.7172079 39.4205137,44.4374562 C39.4205137,45.1588747 39.2022744,45.7463071 38.7640404,46.203264 C38.3275618,46.6625613 37.7775752,46.8907472 37.1175914,46.8907472 C36.4593628,46.8907472 35.9163974,46.6637315 35.4869398,46.2102851 C35.055727,45.758594 34.8392429,45.1688213 34.8392429,44.4374562 C34.8392429,43.7277395 35.0574823,43.1449878 35.4922057,42.6903713 C35.9286843,42.2351697 36.4716498,42.0075689 37.1281231,42.0075689 L37.1281231,42.0075689 Z M37.0936026,40.0246919 C35.9971401,40.0246919 35.0282277,40.4050017 34.1845249,41.1673767 C33.2238038,42.040334 32.7428581,43.133286 32.7428581,44.4444773 C32.7428581,45.669075 33.1688051,46.7087835 34.019529,47.5647732 C34.8702528,48.4219331 35.8959192,48.8496354 37.0988685,48.8496354 C37.9185824,48.8496354 38.6663301,48.6559699 39.3450369,48.2657135 C40.0237436,47.8789677 40.5579327,47.3395128 40.9516996,46.6502743 C41.3448815,45.9610359 41.5408873,45.2220646 41.5408873,44.42985 C41.5408873,43.6429012 41.3466368,42.9097808 40.9552102,42.231074 C40.5631985,41.5523673 40.0219884,41.0140826 39.3257288,40.6191454 C38.6300544,40.2230381 37.8823067,40.0246919 37.0936026,40.0246919 L37.0936026,40.0246919 Z M24.4976238,37 L24.4976238,48.6333854 L26.5869876,48.6333854 L26.5869876,45.2614998 C26.5869876,44.3627984 26.6162422,43.7870679 26.6800172,43.5343081 C26.7970356,43.0463413 27.0100091,42.6601806 27.3160123,42.3775811 C27.6214303,42.0943965 27.9876979,41.9528043 28.413645,41.9528043 C28.7436369,41.9528043 29.0186301,42.0382277 29.2421353,42.2084895 C29.4673957,42.3775811 29.6236153,42.6350216 29.716645,42.9790557 C29.8090895,43.3236749 29.8558969,43.9819035 29.8558969,44.9543265 L29.8558969,48.6333854 L31.9300482,48.6333854 L31.9300482,43.0872978 C31.9300482,42.1207257 31.6854797,41.3881904 31.197513,40.8879367 C30.6270482,40.3133763 29.9243526,40.0243408 29.0929368,40.0243408 C28.6664047,40.0243408 28.2439683,40.1138599 27.8279678,40.2917279 C27.4119674,40.4684257 26.9959669,40.7352277 26.5869876,41.0897935 L26.5869876,37 L24.4976238,37 L24.4976238,37 Z M19.302767,41.9679581 C19.9627508,41.9679581 20.5057162,42.1990695 20.9386844,42.6589519 C21.3698972,43.1194193 21.5863813,43.7097772 21.5863813,44.4294404 C21.5863813,45.1531993 21.3663867,45.7517485 20.9263974,46.219237 C20.4887486,46.6861405 19.9469533,46.9219326 19.302767,46.9219326 C18.6392726,46.9219326 18.0898711,46.6925765 17.6528074,46.2309389 C17.2169138,45.7704714 16.9980894,45.1689968 16.9980894,44.4218342 C16.9980894,43.6916393 17.2169138,43.1001113 17.6528074,42.6478351 C18.0898711,42.1955589 18.6392726,41.9679581 19.302767,41.9679581 L19.302767,41.9679581 Z M17.091119,40.2407664 L15,40.2407664 L15,51.704475 L17.091119,51.704475 L17.091119,47.7463273 C17.5018536,48.1365837 17.9160988,48.4185981 18.3320993,48.5906151 C18.7492699,48.7638024 19.1980355,48.8498109 19.6807364,48.8498109 C20.764912,48.8498109 21.705155,48.4291297 22.4973696,47.5883524 C23.287829,46.746405 23.6827661,45.7020156 23.6827661,44.452259 C23.6827661,43.1568652 23.3001159,42.094338 22.5348155,41.2670179 C21.76893,40.4385275 20.8392187,40.0242823 19.7427562,40.0242823 C19.2389919,40.0242823 18.7668227,40.1190672 18.3233229,40.3086371 C17.8815784,40.5011324 17.4708438,40.7854871 17.091119,41.1669671 L17.091119,40.2407664 L17.091119,40.2407664 Z" id="Logo"></path>
        </g>
    </g>
</svg>