<?xml version="1.0" encoding="UTF-8"?>
<svg width="88px" height="88px" viewBox="0 0 88 88" version="1.1" xmlns="http://www.w3.org/2000/svg" xmlns:xlink="http://www.w3.org/1999/xlink">
    <title>Logo</title>
    <g id="Channels" stroke="none" stroke-width="1" fill="none" fill-rule="evenodd">
        <g id="ZDF" fill="#FFFFFF">
            <path d="M54.2142181,48.5738656 C56.8162917,48.5738656 57.7520842,47.4488213 57.7520842,43.9528601 C57.7520842,40.4560897 56.8162917,39.3325157 54.2142181,39.3325157 L50.9027665,39.3325157 L50.9027665,48.5738656 L54.2142181,48.5738656 Z M40.6663671,42.8372585 C37.2661224,42.8372585 35.8629977,44.6289914 35.8629977,47.6397794 L35.8629977,51.181282 L47.7493509,51.181282 L47.7493509,48.7446423 L38.8896989,48.7446423 L38.8896989,47.9801956 C38.8896989,46.3444489 39.4000579,45.479967 41.7692711,45.479967 L43.6627724,45.479967 C47.4741083,45.479967 48.1377201,42.8761379 48.1377201,41.2345228 C48.1377201,39.6921309 47.5836897,36.9261351 43.6679291,36.9261351 L35.9503404,36.9261351 L35.9503404,39.4427912 L42.584363,39.4427912 C44.1789327,39.4427912 45.0953873,39.8250145 45.0953873,41.191909 C45.0953873,42.5222154 44.1789327,42.8372585 42.6220719,42.8372585 L40.6663671,42.8372585 Z M66.6457386,39.3325157 C64.2779757,39.3325157 63.790661,40.320929 63.790661,41.9579861 L63.7498903,42.9681877 L70.8372251,42.9681877 L70.8372251,45.4638622 L63.7542413,45.4638622 L63.7498903,51.0709974 L60.749134,51.0709974 L60.749134,46.307356 C60.449558,47.8399968 59.798677,49.0076419 58.763939,49.8384491 C57.3245558,50.9956978 55.919175,51.0897085 54.3518394,51.0897085 L47.8058042,51.0897085 C45.2074371,56.2565484 39.8953201,59.7965937 33.7531245,59.7965937 C25.056233,59.7965937 18,52.6828414 18,43.9019577 C18,35.1189505 25.056233,28 33.7531245,28 C39.9314175,28 45.2770535,31.5893212 47.8591446,36.8158595 L54.2764217,36.8158595 C58.105484,36.8158595 60.1951036,38.4992688 60.7646043,42.0498758 L60.7668604,41.7550011 C60.7668604,38.7396629 62.1654729,36.8158595 65.5708745,36.8158595 L71.9024241,36.8158595 L71.9024241,39.3325157 L66.6457386,39.3325157 Z" id="Logo"></path>
        </g>
    </g>
</svg>