<?xml version="1.0" encoding="UTF-8"?>
<svg width="88px" height="88px" viewBox="0 0 88 88" version="1.1" xmlns="http://www.w3.org/2000/svg" xmlns:xlink="http://www.w3.org/1999/xlink">
    <title>Logo</title>
    <g id="Channels" stroke="none" stroke-width="1" fill="none" fill-rule="evenodd">
        <g id="One" fill="#FFFFFF">
            <path d="M75.357521,38.4781738 L75.3573134,38.4780907 L75.3573134,44.6411921 L71.2053993,46.1203115 L71.2053993,41.501307 L69.1553916,42.240846 L69.1553916,40.7098276 L75.357521,38.4781738 Z M72.863051,36.9082312 C69.9841137,36.9082312 67.6212594,39.2499938 67.6212594,42.1371519 C67.6212594,45.0440316 69.9840307,47.4051006 72.863051,47.4051006 C75.7420713,47.4051006 78.1048426,45.043824 78.1048426,42.1371519 C78.1048426,39.2499523 75.7420713,36.9082312 72.863051,36.9082312 Z M72.863051,36 L72.8634662,36 C76.25558,36 79.0041472,38.7535495 79,42.1369443 C79,45.540559 76.2534626,48.3000457 72.863051,48.3000457 C69.4713938,48.3000457 66.7261067,45.540476 66.7261067,42.1369443 C66.7261067,38.7534249 69.4713108,36 72.863051,36 Z M59.4907578,44.7920469 C59.4907578,44.7920469 59.9108714,42.7934129 57.892759,42.7875675 C55.8746466,42.7817477 56.29476,44.7694009 56.29476,44.7694009 L59.4907578,44.7920469 Z M64.5739272,48.2499261 L56.3188578,48.3782537 C56.3188578,48.3782537 56.200123,49.9537202 58.2893551,50.2195521 C60.3785873,50.485384 63.8396723,49.3351949 63.8396723,49.3351949 L64.1497491,53.2308979 C64.1497491,53.2308979 62.136572,54.3902023 58.2893551,54.3902023 C54.4421383,54.3902023 51.0971292,52.6617288 50.9244502,48.7670114 C50.7517712,44.872294 50.6649529,38.9069747 57.7254426,38.9069747 C64.7859322,38.9069747 64.5739269,43.8324929 64.5739272,44.6343958 C64.5739275,45.4362987 64.5739272,48.2499261 64.5739272,48.2499261 Z M40.5862336,41.2495151 C40.5862336,41.2495151 41.9635229,38.9190033 45.5697906,38.9190033 C49.1760582,38.9190033 49.6585939,42.7325417 49.6585939,42.7325417 L49.6585939,54.2376116 L44.1706984,54.2376116 C44.1706984,54.2376116 44.1492136,45.3844535 44.1706983,44.6243587 C44.192183,43.8642639 43.4602508,43.2147867 42.613056,43.6076086 C41.7658612,44.0004305 41.0182506,45.8826664 41.0182506,45.8826664 L41.0182508,54.2376116 L35.5675183,54.2376116 L35.5675183,39.3402781 L40.5862336,39.3402781 L40.5862336,41.2495151 Z M26.7804116,43.499697 C24.793365,43.4707668 24.5565976,46.2331927 24.5565976,47.261687 C24.5565976,48.2901813 24.7366047,49.6144235 26.4368012,49.6144235 C28.1369977,49.6144235 28.7511054,48.7487704 28.8346704,47.2616869 C28.9182354,45.7746033 28.7674582,43.5286272 26.7804116,43.499697 Z M26.0576249,54.233639 C18.3541902,54.578556 19.0141196,47.1224859 19.0141196,47.1224859 C19.0141196,47.1224859 19.0141196,38.7454761 27.3266752,38.7454761 C35.6392308,38.7454761 34.3350502,47.1224858 34.3350502,47.1224858 C34.3350502,47.1224858 33.7610595,53.8887221 26.0576249,54.233639 Z" id="Logo"></path>
        </g>
    </g>
</svg>