<?xml version="1.0" encoding="UTF-8"?>
<svg width="88px" height="88px" viewBox="0 0 88 88" version="1.1" xmlns="http://www.w3.org/2000/svg" xmlns:xlink="http://www.w3.org/1999/xlink">
    <title>Logo</title>
    <g id="Channels" stroke="none" stroke-width="1" fill="none" fill-rule="evenodd">
        <g id="Alpha" fill="#FFFFFF">
            <path d="M72.8974513,35.4304766 L69.3173953,36.7186545 L69.3173953,37.6024044 L70.5007215,37.1755203 L70.5007215,39.8417489 L72.8973315,38.9879566 L72.8973315,35.4304287 L72.8974513,35.4304766 Z M71.457568,34.5242584 C73.1194253,34.5242584 74.4832882,35.8759705 74.4832882,37.5425491 C74.4832882,39.2203678 73.1194253,40.5833679 71.457568,40.5833679 C69.7957107,40.5833679 68.4318479,39.2204877 68.4318479,37.5425491 C68.4318479,35.8759944 69.7957586,34.5242584 71.457568,34.5242584 L71.457568,34.5242584 Z M71.457568,34 C69.4997533,34 67.9151387,35.5893599 67.9151387,37.5424293 C67.9151387,39.5070503 69.4998013,41.0999572 71.457568,41.0999572 C73.4146158,41.0999572 74.9999973,39.5070983 74.9999973,37.5424293 C75.0023939,35.5894318 73.4158381,34 71.4578077,34 L71.457568,34 Z M63.773557,40.3134497 C61.8077616,40.3134497 59.936105,42.2500544 58.9352807,43.8633085 C58.4660484,44.6817987 57.8442959,45.9872561 57.669583,47.2784777 C57.4916419,48.5627731 57.6997084,49.9490203 58.9877185,50.678788 C61.6795909,52.2096706 64.6159175,49.7955174 65.818057,48.4769026 C65.9037814,48.3844414 65.9444303,48.1599509 65.8480147,48.0125594 L64.7171023,46.5596146 C64.5117728,46.3162628 64.2912247,46.2889175 64.0130981,46.5596146 C63.2975183,47.2582983 62.9133417,47.8380382 61.7662763,48.3345919 C60.9236282,48.6977502 60.4519034,48.5071238 60.2833738,48.2297402 C59.844938,47.5171561 61.0649323,45.5318763 61.2120602,45.2713648 C62.1503809,43.7678754 63.1363463,43.0478619 63.7658878,43.0170655 C63.8963784,43.0100841 64.1359004,43.0842904 64.3725177,43.3241191 C64.6048907,43.5570289 64.850258,43.9077176 65.113981,44.3426784 C65.6488803,45.2332587 66.2044145,46.3926188 66.8215656,47.4956585 C67.8764095,49.3861764 69.2253654,51.1018376 71.3525965,50.9407854 C71.6058702,50.899777 71.5997349,50.6831978 71.5997349,50.4090256 C71.60321,49.8713941 71.5847561,48.6640059 71.5847561,48.6640059 C71.5952053,48.4755677 71.449132,48.3773474 71.2027844,48.3569522 C71.0862085,48.3465054 70.8622022,48.3404923 70.7384412,48.2820582 C70.1702529,48.0046745 69.9725326,47.587257 69.5101786,46.8440922 C69.0200479,46.0494242 68.6303591,45.094471 68.1096476,44.1627649 C67.0346242,42.2307617 65.9794687,40.3133299 63.7732214,40.3133299 L63.773557,40.3134497 Z M47.4550393,35.4080084 C47.3208388,35.4080084 47.2153783,35.5174232 47.2153783,35.6476694 L47.2153783,50.6938268 C47.2153783,50.8275408 47.3208364,50.9334878 47.4550393,50.9334878 L49.5895082,50.9334878 C49.7234643,50.9334878 49.8291692,50.827294 49.8291692,50.6938268 L49.8291692,46.0429653 C49.8291692,44.2653038 50.8700169,42.7550561 52.1958216,42.7550561 C53.1550408,42.7550561 53.439063,43.3858199 53.439063,44.4476619 L53.4315856,50.6937069 C53.4315856,50.827421 53.5414893,50.9333679 53.6712466,50.9333679 L55.7907606,50.9333679 C55.9205178,50.9333679 56.0304216,50.8271741 56.0304216,50.6937069 L56.0304216,43.8183121 C56.0304216,42.043886 55.2966275,40.5754591 53.0121309,40.5754591 C51.4434777,40.5754591 50.2787972,41.3296483 49.6868345,42.4702669 L49.6389023,42.4479784 C49.7825695,41.8554166 49.8261375,41.0015524 49.8261375,40.3883797 L49.8261375,35.6476454 C49.8261375,35.5173993 49.7204326,35.4079844 49.5864765,35.4079844 L47.4520076,35.4079844 L47.4550393,35.4080084 Z M41.6648295,40.4782166 C40.133947,40.4782166 39.0544419,41.1878768 38.4818918,42.3730244 L38.4369553,42.3730244 C38.4956315,41.9825208 38.5273435,41.5106762 38.5343176,41.0998254 C38.5377927,41.0893785 38.5345357,40.8751432 38.5343176,40.8751432 C38.5343176,40.741676 38.4328811,40.6354822 38.302146,40.6354822 L36.3549004,40.6354822 C36.2216776,40.6354822 36.1152394,40.741676 36.1152394,40.8751432 L36.1152394,56.0562297 C36.1152394,56.1896969 36.2216776,56.2958907 36.3549004,56.2958907 L38.4818918,56.2958907 C38.61609,56.2958907 38.7290302,56.1896969 38.7290302,56.0562297 L38.7290302,55.7940885 L38.7290302,50.8810379 C39.1605159,50.9426955 39.5422958,50.9634214 40.0321869,50.9634214 C43.5396257,50.9634214 45.3795032,48.7395351 45.3795032,45.2115574 C45.3792635,42.2112413 44.0727516,40.4782526 41.6647576,40.4782526 L41.6648295,40.4782166 Z M40.9084115,42.6201868 C42.0895088,42.6201868 42.6459537,43.5986748 42.6459537,45.4961189 C42.6459537,48.0068075 41.5617753,48.9412458 40.0921261,48.9412458 C39.5651835,48.9412458 39.1394257,48.8847649 38.7290542,48.7615 L38.7290542,45.9454832 C38.7290542,44.2123028 39.5416727,42.6201868 40.9084834,42.6201868 L40.9084115,42.6201868 Z M31.2400553,35.4005789 C31.1058547,35.4005789 31.0003943,35.5099937 31.0003943,35.6402399 L31.0003943,50.6938268 C31.0003943,50.8240729 31.1060992,50.9334878 31.2400553,50.9334878 L33.3670467,50.9334878 C33.5012952,50.9334878 33.6067077,50.8238285 33.6067077,50.6938268 L33.6067077,35.6402399 C33.6067077,35.5099937 33.5012952,35.4005789 33.3670467,35.4005789 L31.2400553,35.4005789 L31.2400553,35.4005789 Z M21.166624,40.208598 C19.2043037,40.208598 17.3210236,42.1452027 16.3209182,43.7584568 C15.8553528,44.576947 15.2331928,45.8781385 15.0552206,47.1661966 C14.876304,48.4504919 15.0860793,49.8444082 16.3733561,50.5739363 C18.322495,51.6837585 20.4003799,50.7210954 21.8556015,49.6078149 C21.9863366,49.5153537 22.1168559,49.3975723 22.2675308,49.2708036 C22.6410904,48.9521743 22.957371,48.6392969 23.2036946,48.3720748 C23.210628,48.361676 23.2266661,48.344823 23.2336523,48.3346278 C23.5378779,48.0159985 23.8551412,47.668514 24.1698161,47.3085911 L24.2072631,47.3834852 C25.26563,49.2742427 26.6597141,51.0941565 28.7833503,50.933344 C29.0400991,50.8888725 29.0347547,50.6682789 29.0379901,50.3941067 C29.0414604,49.8597106 29.0230113,48.6565644 29.0230113,48.6565644 C29.0299447,48.4649051 28.8833632,48.3661193 28.6335621,48.3420094 C28.5169838,48.3318046 28.2929799,48.3287729 28.1692189,48.2671153 C27.6044818,47.9897317 27.3356061,47.4784629 26.8735636,46.731799 C26.5683553,46.2384568 26.2845728,45.7022872 25.9898137,45.1440449 C26.5895414,44.4075666 28.9407596,41.4367288 28.9405199,41.4367288 C29.6017446,40.5322482 29.236022,40.4704157 28.6335142,40.4704157 L26.7237036,40.4629263 C26.4465596,40.4765941 26.2602951,40.5759001 26.1919438,40.6651402 C26.0306495,40.867196 25.7693495,41.2143713 25.495441,41.563869 C25.2009216,41.9476142 24.919248,42.3241695 24.6341473,42.6872799 C23.7950222,41.3242319 22.8179722,40.2082265 21.1664922,40.2082265 L21.166624,40.208598 Z M21.1526758,42.9120939 C21.2789675,42.9051126 21.5226884,42.9793164 21.7593057,43.2191476 C21.9924599,43.4520574 22.2592625,43.7992231 22.5232251,44.2377069 C22.6467344,44.4429861 22.7781525,44.6638721 22.9051968,44.8967746 C22.4254674,45.4756518 21.9604771,46.0091132 21.4971885,46.4920062 C20.7912909,47.1805283 20.2903995,47.7362063 19.1530163,48.2295485 C18.3104161,48.5927068 17.8450903,48.3986125 17.6776152,48.1246968 C17.2426545,47.4121127 18.4591737,45.4194034 18.6063016,45.1588919 C19.5453653,43.6553546 20.5258664,42.9428664 21.1526997,42.91207 L21.1526758,42.9120939 Z" id="Logo"></path>
        </g>
    </g>
</svg>