<?xml version="1.0" encoding="UTF-8"?>
<svg width="88px" height="88px" viewBox="0 0 88 88" version="1.1" xmlns="http://www.w3.org/2000/svg" xmlns:xlink="http://www.w3.org/1999/xlink">
    <title>Logo</title>
    <g id="Channels" stroke="none" stroke-width="1" fill="none" fill-rule="evenodd">
        <g id="RBB" fill="#FFFFFF">
            <path d="M74.7175296,40.377113 L74.7175296,36.5403191 L70.8527234,37.9266063 L70.8527234,38.8788039 L72.1269893,38.4167049 L72.1269893,41.3013056 L74.7175296,40.377113 L74.7175296,40.377113 Z M73.1772097,35.5601158 C71.3708359,35.5601158 69.9005303,37.0164187 69.9005303,38.8227932 C69.9005303,40.6291626 71.3708359,42.0854654 73.1772097,42.0854654 C74.9835836,42.0854654 76.4398864,40.6291626 76.4398864,38.8227932 C76.4398864,37.0164187 74.9835836,35.5601158 73.1772097,35.5601158 L73.1772097,35.5601158 Z M73.1772097,35 C75.2916461,35 77,36.7083525 77,38.8227932 C77,40.9372288 75.2916461,42.6455813 73.1772097,42.6455813 C71.0627734,42.6455813 69.3404166,40.9372288 69.3404166,38.8227932 C69.3404166,36.7083525 71.0627734,35 73.1772097,35 L73.1772097,35 Z M65.8957031,47.5886054 C65.8957031,48.5408038 65.811686,49.4649912 65.7556747,50.0251071 C64.9295071,50.249157 63.0951202,50.6272337 59.8744595,50.6272337 C58.4461623,50.6412343 56.7658141,50.5292115 54.805409,50.361179 L54.805409,44.5639778 C60.266539,43.7518123 64.1873491,44.6759998 65.7136662,45.1520993 C65.7836804,45.7122144 65.8957031,46.6364078 65.8957031,47.5886054 M68.4722331,47.4765835 C68.4722331,44.0318676 67.8561081,43.2617077 67.8561081,43.2617077 C67.8561081,43.2617077 64.9575053,41.6653772 59.0622947,41.6653772 C57.7880288,41.6793831 56.3037203,41.7633993 54.805409,41.9734434 L54.805409,36.5403191 L52.2288789,36.5403191 L52.2288789,52.6996637 C52.2288789,52.6996637 56.331726,53.2037682 59.8324435,53.2037682 C66.2177684,53.2037682 67.870111,51.8734924 67.870111,51.8734924 C67.870111,51.8734924 68.4722331,51.0193162 68.4722331,47.4765835 M48.1120216,47.5886054 C48.1120216,48.5408038 48.0420104,49.4649912 47.9719939,50.0251071 C47.1598233,50.249157 45.3254482,50.6272337 42.0907765,50.6272337 C40.6764844,50.6412343 38.9961377,50.5292115 37.0217298,50.361179 L37.0217298,44.5639778 C42.482859,43.7518123 46.4176742,44.6759998 47.9299832,45.1520993 C47.9999996,45.7122144 48.1120216,46.6364078 48.1120216,47.5886054 M50.6885591,47.4765835 C50.6885591,44.0318676 50.0724267,43.2617077 50.0724267,43.2617077 C50.0724267,43.2617077 47.1878289,41.6653772 41.278611,41.6653772 C40.0183472,41.6793831 38.5340387,41.7633993 37.0217298,41.9734434 L37.0217298,36.5403191 L34.4591959,36.5403191 L34.4591959,52.6996637 C34.4591959,52.6996637 38.5620437,53.2037682 42.0487658,53.2037682 C48.4480898,53.2037682 50.0864295,51.8734924 50.0864295,51.8734924 C50.0864295,51.8734924 50.6885591,51.0193162 50.6885591,47.4765835 M32.7788483,41.7213886 C22.9208101,41.7774044 19,44.1018841 19,44.1018841 L19,53.0357296 L21.61854,53.0357296 L21.61854,45.7822309 C22.8507937,45.3761485 26.3235152,44.3679388 32.7788483,44.2839225 L32.7788483,41.7213886 L32.7788483,41.7213886 Z" id="Logo"></path>
        </g>
    </g>
</svg>