<?xml version="1.0" encoding="UTF-8"?>
<svg width="88px" height="88px" viewBox="0 0 88 88" version="1.1" xmlns="http://www.w3.org/2000/svg" xmlns:xlink="http://www.w3.org/1999/xlink">
    <title>Logo</title>
    <g id="Channels" stroke="none" stroke-width="1" fill="none" fill-rule="evenodd">
        <g id="WDR" fill="#FFFFFF">
            <path d="M73.6487585,41.5534312 L71.0005928,42.5052856 L71.0005928,39.5318061 L69.6907168,40.0077333 L69.6907168,39.024624 L73.6487585,37.5954217 L73.6487585,41.5534312 Z M72.0689515,36.5796367 C70.216372,36.5796367 68.714703,38.0898177 68.714703,39.9523268 C68.714703,41.814836 70.216372,43.325017 72.0689515,43.325017 C73.9215309,43.325017 75.4246207,41.814836 75.4246207,39.9523268 C75.4246207,38.0898177 73.9215309,36.5796367 72.0689515,36.5796367 Z M72.0689515,36 C74.2397654,36 76,37.7701651 76,39.9523268 C76,42.1359093 74.2397654,43.9046537 72.0689515,43.9046537 C69.8981375,43.9046537 68.1379029,42.1359093 68.1379029,39.9523268 C68.1379029,37.7701651 69.8981375,36 72.0689515,36 Z M60.0070113,44.1868004 C61.2984183,44.1868004 61.9206804,43.5418125 61.9206804,42.4805658 C61.9206804,41.3283958 61.3211494,40.7530211 59.8677838,40.7530211 L57.6884457,40.7530211 L57.6884457,44.1868004 L60.0070113,44.1868004 L60.0070113,44.1868004 Z M45.1409138,49.3751173 C47.8388036,49.3751173 49.1060589,47.8990326 49.1060589,45.0875104 C49.1060589,42.2276851 47.8388036,40.983171 45.0258379,40.983171 L43.8509275,40.983171 L43.8509275,49.3751173 L45.1409138,49.3751173 Z M53.4476868,52.855779 L53.4476868,47.2568292 L53.4065436,47.2568292 C52.5910677,50.5513821 49.819302,52.855779 44.795743,52.855779 L39.5605013,52.855779 L39.5605013,40.1079764 L39.5150392,40.1079764 L36.0997011,52.855779 L31.4895628,52.855779 L29.1610523,43.0118427 L29.1154766,43.0118427 L26.7869661,52.855779 L22.102952,52.855779 L18,37.5024525 L22.657021,37.5024525 L24.0862349,43.7719055 C24.3860004,45.063302 24.6388832,46.701344 24.6388832,46.701344 L24.6858228,46.701344 C24.6858228,46.701344 25.0083194,44.8800345 25.3080849,43.5872174 L26.5312988,37.5024525 L31.6798784,37.5024525 L32.9030923,43.5872174 C33.2028578,44.8800345 33.5253544,46.701344 33.5253544,46.701344 L33.5708165,46.701344 C33.5708165,46.701344 33.82512,45.063302 34.1248855,43.7719055 L35.5540994,37.5024525 L44.9334931,37.5024525 C49.8874383,37.5024525 52.599535,39.6164217 53.4050661,42.8314165 L53.4476868,42.8314165 L53.4476868,37.5024525 L60.0993562,37.5024525 C64.0176185,37.5024525 66.2296325,39.0936121 66.2296325,42.1807459 C66.2296325,44.6726155 64.6640323,45.8958195 63.2333978,46.4030016 L63.2333978,46.4470995 C63.740584,46.8150551 64.3855772,47.531077 65.1697979,48.8679352 L67.5437705,52.855779 L62.980515,52.855779 L60.37497,48.475828 C59.7129286,47.4046934 58.4953975,47.4316295 58.0123629,47.4316295 L57.6884457,47.4316295 L57.6884457,52.855779 L53.4476868,52.855779 Z" id="Logo"></path>
        </g>
    </g>
</svg>