<?xml version="1.0" encoding="UTF-8"?>
<svg width="88px" height="88px" viewBox="0 0 88 88" version="1.1" xmlns="http://www.w3.org/2000/svg" xmlns:xlink="http://www.w3.org/1999/xlink">
    <title>Logo</title>
    <g id="Channels" stroke="none" stroke-width="1" fill="none" fill-rule="evenodd">
        <g id="3sat" fill="#FFFFFF" fill-rule="nonzero">
            <path d="M49.2281232,29 L49.2281232,59 L19,59 L19,29 L49.2281232,29 Z M39.3459469,40.5272204 L37.856023,42.0058124 L36.3660991,43.4844103 L36.816491,43.9726532 C37.4583621,44.6684705 37.7687194,45.3676845 37.8137699,46.2194706 C37.9318582,48.452288 36.4077388,50.0965761 34.0727062,50.2554963 C32.1711367,50.3849141 30.4138566,49.399485 29.4287132,47.6512731 C29.2056566,47.3242963 29.0802408,47.1461531 29.0555867,47.1176483 C29.0385698,47.124873 28.838884,47.3187704 28.5354553,47.6209004 L28.3186664,47.8374941 C28.1458469,48.010674 27.9514764,48.2065543 27.7454208,48.41533 L27.5358356,48.6280409 L26.0745212,50.1136225 L26.3927056,50.5554144 C27.7917504,52.4979668 29.8682592,53.843278 32.046122,54.2181103 C32.324779,54.2660667 32.6477655,54.3220964 32.7638702,54.3426437 C32.8799778,54.3631731 33.4689532,54.3648655 34.0727062,54.3463968 C35.6985118,54.2966589 36.8429164,53.9701749 38.2940909,53.1420834 C39.2578593,52.5921247 40.6046519,51.2429208 41.1461503,50.2849157 C42.4600879,47.9603425 42.4970691,45.0805194 41.2416379,42.8488748 C40.9467781,42.3247345 40.2725629,41.4486914 39.7922308,40.9542373 L39.6545209,40.8180823 L39.3459469,40.5272204 Z M39.4688104,34.0315948 C39.4423928,34.0068463 37.5738356,35.8354837 35.6431753,37.7503192 L35.1973461,38.1929301 L35.010896,38.3782936 L35.010896,38.3782936 L34.6408313,38.7466652 C34.5795884,38.8076801 34.5186027,38.8684654 34.4579338,38.9289615 L34.0982006,39.2879956 C33.9207132,39.4653039 33.7471531,39.6389431 33.5791336,39.8073116 L33.2509598,40.1365465 C32.1848588,41.2074069 31.412805,41.9965584 31.412805,42.0294447 C31.412805,42.0694735 31.8706712,42.5581855 32.4748003,43.1663916 L32.7417593,43.4334075 C33.4726842,44.1598378 34.0903171,44.7541868 34.1142531,44.7541868 C34.1374754,44.7541868 35.8641503,43.0593507 37.9925389,40.9479308 L38.1932125,40.7488037 L42.2286303,36.7434207 L40.8691298,35.4066282 C40.1214048,34.6713942 39.4912504,34.0526171 39.4688104,34.0315948 Z M63.7325693,33.7621531 C64.9946523,33.9539697 65.8227066,34.542211 66.2206548,35.5296681 C66.2386262,35.5742624 66.2549011,35.6159392 66.269667,35.6575737 L66.2972422,35.741638 C66.4042187,36.0987692 66.415083,36.5860613 66.4383558,38.867317 L66.4676475,41.7374337 L64.6825387,41.7374337 L64.6825387,40.9617644 L64.4081064,41.1825133 C63.9690032,41.5357176 63.522848,41.7414095 62.9214378,41.8679115 C62.3091995,41.9966909 61.9705528,42.0043545 61.3893416,41.9025775 C60.5634326,41.7579482 59.8811695,41.2946382 59.6046847,40.6906658 C59.3754674,40.1899372 59.3944696,39.2974606 59.6457499,38.7619591 C60.1168225,37.7580672 61.4410524,37.1343968 63.7114697,36.8471307 L64.5558813,36.7402911 L64.5359845,36.420476 C64.5097746,35.9987771 64.2802462,35.6238586 63.9195754,35.4135852 C63.6904719,35.2800164 63.4896547,35.244908 62.9937125,35.2517224 C62.2862838,35.2614319 61.9468113,35.3796793 61.3684395,35.8178042 L60.9877582,36.1061749 L59.9116161,35.0209849 L60.2493802,34.7273972 C61.1206808,33.9700571 62.5302994,33.5794284 63.7325693,33.7621531 Z M69.9619698,31.175303 C69.9625682,31.2169646 70.0023199,31.8009806 70.0023199,32.5614563 L70.0023199,33.9441385 L72.3732416,33.9441385 L72.3488567,34.6773772 L72.3244719,35.4106189 L71.1634109,35.4339275 L70.0023468,35.4572362 L70.0023468,39.8229378 L70.249175,40.0678892 C70.4520925,40.2692638 70.566734,40.3128405 70.8936251,40.3128405 C71.1526756,40.3128405 71.3932564,40.2502724 71.5839546,40.1333136 L71.8766621,39.9537808 L73,41.0764665 L72.7466762,41.288955 C72.0981211,41.8329782 70.9952634,42.0928649 70.1211293,41.9076698 C69.2857236,41.7306935 68.7680057,41.3642374 68.4149016,40.6999803 L68.1868393,40.2709533 L68.1623348,36.5886128 L68.1378304,32.9062754 L69.0052355,32.0425262 C69.4823071,31.5674609 69.9613953,31.1399155 69.9619698,31.175303 Z M57.7019454,34.5433007 L58.2788122,34.9733165 L57.746607,35.5062139 C57.4538935,35.7993057 57.1932782,36.0391114 57.1674662,36.0391114 C57.1416453,36.0391114 56.9181458,35.8881962 56.670782,35.7037434 C55.7067473,34.9848877 54.478426,34.9662467 54.2101871,35.6663991 C54.0250301,36.1496982 54.3862335,36.4748994 55.5207016,36.8462874 C57.4371922,37.4736813 58.1184888,38.0504761 58.3066887,39.2049446 C58.4275296,39.9462063 58.0069769,40.900868 57.3659167,41.340528 C56.5883554,41.8738025 55.3018278,42.0861514 54.1570611,41.8701622 C53.4106316,41.7293276 52.6140472,41.3458518 52.058624,40.8599666 L51.6364197,40.4906185 L52.7640392,39.3629533 L53.0828579,39.6407535 C53.6370124,40.1236071 54.3584916,40.4043023 55.0510143,40.4064758 C55.7396533,40.4085543 56.1244755,40.2422822 56.3093722,39.8624972 C56.5526668,39.3627663 56.1688649,38.8684068 55.2919751,38.5520212 C53.2344297,37.8096461 52.8028215,37.5489607 52.4752273,36.8507086 C51.9542181,35.7401998 52.4107227,34.5301291 53.5363406,34.0379817 C54.8654952,33.4568428 56.5124693,33.6566319 57.7019454,34.5433007 Z M63.5574206,38.1757577 C62.2438931,38.4030717 61.6216197,38.7377538 61.392184,39.3402861 C61.2607873,39.6853457 61.4212364,40.1158901 61.7569239,40.3190254 C62.1603983,40.5631751 62.927703,40.538459 63.483922,40.2633906 C64.2286342,39.8951025 64.598111,39.2739738 64.598111,38.3902653 C64.598111,37.9903012 64.6122237,37.9932111 63.5574206,38.1757577 Z M38.7155352,33.6927409 L26.3055366,33.6927409 L28.2040482,35.5782153 L30.1025628,37.4636897 L34.918509,37.4636897 L36.8170236,35.5782153 L38.7155352,33.6927409 Z" id="Logo"></path>
        </g>
    </g>
</svg>