<?xml version="1.0" encoding="UTF-8"?>
<svg width="88px" height="88px" viewBox="0 0 88 88" version="1.1" xmlns="http://www.w3.org/2000/svg" xmlns:xlink="http://www.w3.org/1999/xlink">
    <title>Logo</title>
    <g id="Channels" stroke="none" stroke-width="1" fill="none" fill-rule="evenodd">
        <g id="SR" fill="#FFFFFF">
            <path d="M68.7540462,28.1473355 L68.7540462,33.4963224 L65.1151384,34.7457776 L65.1151384,30.7642206 L63.3045282,31.4229045 L63.3045282,30.1056178 L68.7540462,28.1473355 Z M66.5830999,26.7739008 C64.0322613,26.7739008 61.9665513,28.797581 61.9665513,31.3549914 C61.9665513,33.8603106 64.0322613,35.8799337 66.5830999,35.8799337 C69.1373455,35.8799337 71.2025687,33.8603106 71.2025687,31.3549914 C71.2025687,28.797581 69.1373455,26.7739008 66.5830999,26.7739008 Z M66.5830999,26 C69.579795,26 72,28.381096 72,31.3549914 C72,34.2703046 69.579795,36.6596768 66.5830999,36.6596768 C63.5929762,36.6596768 61.1721229,34.2703046 61.1721229,31.3549914 C61.1721229,28.381096 63.5929762,26 66.5830999,26 Z M26,60.5713225 L26,52.1865315 L60.2678722,52.1865315 L60.2678722,60.5713225 L26,60.5713225 Z M49.9247577,32.1376552 C49.4106633,32.1376552 48.8243554,32.191369 48.5217081,32.2499512 L48.5217081,37.7849896 C48.7787553,37.7849896 49.3102134,37.8411377 49.7917719,37.8411377 C51.945761,37.8411377 53.3154633,36.7113623 53.3154633,34.869757 C53.3154633,33.2038986 52.312994,32.1376552 49.9247577,32.1376552 Z M50.3176314,28.0321185 C55.5071812,28.0321185 58.6466807,29.8656095 58.6466807,34.4533539 C58.6466807,37.3686668 56.7166349,39.74814 53.7850124,40.4639456 C54.3675879,41.3001606 54.9244433,42.1229884 55.4775655,42.9006218 L60.1384159,49.8712464 L53.9416104,49.8712464 L48.7196051,41.4091301 L48.5217081,41.4091301 L48.5217081,49.8712464 L43.4326886,49.8712464 L43.4326886,28.1975603 C45.2872761,28.0868871 47.6722668,28.0321185 50.3176314,28.0321185 Z M34.9261893,27.8460675 C36.0975078,27.8460675 37.5582479,27.9665585 38.931358,28.1975603 L38.6448566,32.545296 C37.4084655,32.1938843 36.0200202,31.9545252 34.7282924,31.9545252 C32.6004301,31.9545252 31.6181651,32.8464827 31.6181651,34.0959379 C31.6181651,37.4277359 40.3963165,36.1784429 40.3963165,42.9656952 C40.3963165,47.1238903 36.9773755,50.2758852 31.3582779,50.2758852 C29.8225658,50.2758852 28.2696524,50.1014374 26.8510235,49.7501069 L27.1139128,45.1630928 C28.3535498,45.5764135 30.152638,45.9399149 31.7599144,45.9399149 C33.617828,45.9399149 34.9498819,45.1614701 34.9498819,43.674604 C34.9498819,39.9880669 26.1746514,41.8298344 26.1746514,34.5773333 C26.1746514,30.5233198 29.4111927,27.8460675 34.9261893,27.8460675 Z" id="Logo"></path>
        </g>
    </g>
</svg>