<?xml version="1.0" encoding="UTF-8"?>
<svg width="88px" height="88px" viewBox="0 0 88 88" version="1.1" xmlns="http://www.w3.org/2000/svg" xmlns:xlink="http://www.w3.org/1999/xlink">
    <title>Logo</title>
    <g id="Channels" stroke="none" stroke-width="1" fill="none" fill-rule="evenodd">
        <g id="ZDFinfo" fill="#FFFFFF">
            <path d="M66.3527391,45.425 L68.0990466,45.425 C68.2895176,45.425 68.4428571,45.9075504 68.4428571,46.5069517 L68.4428571,48.2269769 C68.4428571,48.8263779 68.2895176,49.3089286 68.0990466,49.3089286 L66.3527391,49.3089286 C66.1622681,49.3089286 66.0089286,48.8263779 66.0089286,48.2269769 L66.0089286,46.5069517 C66.0089286,45.9075504 66.1622681,45.425 66.3527391,45.425 Z M65.692666,43.9232143 C64.8063721,43.9232143 64.0928571,44.9254343 64.0928571,46.1703443 L64.0928571,48.6153698 C64.0928571,49.8602797 64.8063721,50.8625 65.692666,50.8625 L68.7591198,50.8625 C69.6454136,50.8625 70.3589286,49.8602797 70.3589286,48.6153698 L70.3589286,46.1703443 C70.3589286,44.9254343 69.6454136,43.9232143 68.7591198,43.9232143 L65.692666,43.9232143 Z M59.4702758,50.8625 L63.2642857,50.8625 L63.2642857,49.3089286 L62.2803571,49.3089286 L62.2803571,45.4475978 L63.575,45.4475978 L63.575,43.9222731 L62.2803571,43.9222731 L62.2803571,43.6172083 C62.2803571,43.0584528 62.3273848,43.0070838 62.8015286,43.0070784 L63.6785714,43.0070685 L63.6785714,41.55801 L61.8345298,41.55801 C60.880756,41.55801 60.3854713,42.142702 60.3854713,43.0070784 L60.3854713,43.9222731 L59.4321429,43.9222731 L59.4321429,45.4475978 L60.3854713,45.4475978 L60.3854713,49.3089286 L59.4702758,49.3089286 L59.4702758,50.8625 Z M50.9910714,43.9232143 L50.9910714,45.425 L51.8714286,45.425 L51.8714286,49.3089286 L50.9392857,49.3089286 L50.9392857,50.8625 L54.5125,50.8625 L54.5125,49.3089286 L53.7875,49.3089286 L53.7875,45.7357143 C54.2546165,45.4918757 54.6093931,45.4205205 55.0303571,45.425 C55.806974,45.4332637 55.9625,45.5352854 55.9625,46.0464286 L55.9625,49.3089286 L55.2375,49.3089286 L55.2375,50.8625 L58.8107143,50.8625 L58.8107143,49.3089286 L57.8785714,49.3089286 L57.8785714,45.7357143 C57.8770261,44.2635829 57.4283009,43.9239082 55.8879576,43.9232143 C55.1314625,43.922873 54.9164327,43.8449762 53.7875,44.8035714 L53.7875,43.9232143 L50.9910714,43.9232143 Z M46.4339286,43.9232143 L46.4339348,45.4767868 L47.4178634,45.4767868 L47.4178634,49.3089296 L46.432085,49.2959832 L46.4339286,50.8625 L50.2660714,50.8625 L50.2660714,49.3089286 L49.3339286,49.3089286 L49.3339286,43.9232143 L46.4339286,43.9232143 Z M47.3142857,41.3857143 L47.3142857,43.0428571 L49.2821429,43.0428571 L49.2821429,41.3857143 L47.3142857,41.3857143 Z M45.8346933,36 L70.8545924,36 C72.0431481,36 73,36.956852 73,38.1454081 L73,50.8403067 C73,52.0288624 72.0431481,52.9857143 70.8545924,52.9857143 L45.8346933,52.9857143 C44.6461376,52.9857143 43.6892857,52.0288624 43.6892857,50.8403067 L43.6892857,48.4285714 L40.6857143,45.425 L43.6892857,45.425 L43.6892857,38.1454081 C43.6892857,36.956852 44.6461376,36 45.8346933,36 Z M35.4035714,50.8107143 L35.4035714,48.8428571 L36.6464286,48.8428571 L36.6464286,43.4571429 L35.3517857,43.4571429 L35.3517857,41.3857143 L36.6464286,41.3857143 L36.6464286,40.1428571 C36.6464286,38.9690132 37.319038,38.175 38.6142857,38.175 L41.0482143,38.175 L41.0482143,40.1428571 L39.8571429,40.1428571 C39.2132445,40.1428571 39.1321429,40.2126246 39.1321429,40.9714286 L39.1321429,41.3857143 L40.8928571,41.3857143 L40.8928571,43.4571429 L39.1321429,43.4571429 L39.1321429,48.8428571 L40.4785714,48.8428571 L40.4785714,50.8107143 L35.4035714,50.8107143 Z M28.0099419,43.4498579 C27.1947324,43.4627988 27.1752765,44.2012651 27.1733233,44.9303769 L27.165762,47.6764687 C27.1636115,48.4823435 27.618912,48.7770557 27.7915341,48.7793934 L29.2334684,48.7989178 C29.6735969,48.8048749 30.5355202,48.4918293 30.5355202,48.4918293 L30.5355202,43.819643 C30.5355202,43.819643 29.9763033,43.4186434 29.1749493,43.431363 L28.0099419,43.4498579 Z M33.1250022,38.1750002 L33.1250022,48.7910713 L34.4196406,48.7910713 L34.4196406,50.8107143 L30.5357144,50.8107143 L30.5357144,49.6255946 C29.2812397,50.8107143 28.8783829,50.8107143 27.687499,50.8107143 C26.1909627,50.8107143 24.6321414,51.0311726 24.6321414,47.128231 L24.6321414,45.2986743 C24.6321414,41.5266002 25.8861413,41.3857143 27.687499,41.3857143 C29.2879624,41.3857143 29.5431565,41.5739575 30.5357252,42.4214287 L30.5356928,40.1946427 L29.2928291,40.1946427 L29.2928615,38.1750002 L33.1250022,38.1750002 Z M15.2589286,41.3857143 L23.6482143,41.3857143 L23.6482143,43.1982143 L18.2107143,48.9464286 L21.4732143,48.9464286 L21.4732143,47.0821429 L23.6482143,47.0821429 L23.6482143,50.8107143 L15,50.8107143 L15,49.05 L20.4478571,43.2914286 L17.4857143,43.2914286 L17.4857143,45.0107143 L15.2589286,45.0107143 L15.2589286,41.3857143 Z" id="Logo"></path>
        </g>
    </g>
</svg>