<?xml version="1.0" encoding="UTF-8"?>
<svg width="88px" height="88px" viewBox="0 0 88 88" version="1.1" xmlns="http://www.w3.org/2000/svg" xmlns:xlink="http://www.w3.org/1999/xlink">
    <title>Logo</title>
    <g id="Channels" stroke="none" stroke-width="1" fill="none" fill-rule="evenodd">
        <g id="RB" fill="#FFFFFF">
            <path d="M79.5399991,42.9089764 L77.8978441,43.4970674 L77.8978441,41.6610877 L77.0841658,41.9554941 L77.0841658,41.3477921 L79.5399991,40.4662572 L79.5399991,42.9089764 Z M78.5607699,39.8388237 C77.4109365,39.8388237 76.4780278,40.7712512 76.4780278,41.9208439 C76.4780278,43.0704367 77.4108162,44.0038266 78.5607699,44.0038266 C79.710483,44.0038266 80.6423088,43.0704367 80.6423088,41.9208439 C80.6423088,40.7712512 79.710483,39.8388237 78.5607699,39.8388237 Z M78.5607699,39.4812529 C79.9083982,39.4812529 81.0001203,40.5736969 81,41.9207236 C81,43.2684723 79.9082779,44.3613975 78.5607699,44.3613975 C77.2132619,44.3613975 76.1205772,43.2684723 76.1205772,41.9207236 C76.1205772,40.5736969 77.2132619,39.4812529 78.5607699,39.4812529 Z M70.9236479,48.3773323 L70.9236479,43.8416444 C70.9236479,43.5040455 70.9126994,43.1872608 70.8809367,42.94495 L72.104883,42.94495 C72.1159519,43.2192642 72.1475942,43.5041658 72.1475942,43.77848 L72.178996,43.77848 L72.1676865,43.77848 C72.3577814,43.451228 72.7266617,42.8607308 73.6132498,42.8607308 C74.8476634,42.8607308 75.2167844,43.77848 75.2167844,44.8756162 L75.2167844,48.3773323 L73.9087391,48.3773323 L73.9087391,45.1180473 C73.9087391,44.2841564 73.6983113,43.9366919 73.1593081,43.9366919 C72.4743649,43.9366919 72.2312119,44.5167219 72.2312119,45.213576 L72.2312119,48.3773323 L70.9236479,48.3773323 L70.9236479,48.3773323 Z M68.4324425,45.1915587 C68.4324425,44.2319405 68.1157781,43.7469579 67.5250402,43.7469579 C66.8397361,43.7469579 66.5556766,44.4742513 66.5556766,45.1915587 L68.4324425,45.1915587 Z M69.4239437,48.1137261 C69.1499905,48.2303096 68.5807887,48.4627547 67.7997153,48.4627547 C66.049158,48.4627547 65.2891394,47.206805 65.2891394,45.7400666 C65.2891394,44.1164398 66.142521,42.8606105 67.5250402,42.8606105 C68.696169,42.8606105 69.6986187,43.5463958 69.6986187,45.762084 L69.6986187,46.0145011 L66.5556766,46.0145011 C66.5556766,46.9430785 66.9237147,47.5016927 67.9363911,47.5016927 C68.7393615,47.5016927 69.1177465,47.2592616 69.360298,47.0801152 L69.4239437,48.1137261 Z M58.4003656,48.3773323 L57.0924407,48.3773323 L57.0924407,43.8312975 C57.0924407,43.4403998 57.0704233,43.1456325 57.0497295,42.94495 L58.3590982,42.94495 C58.3683623,43.229972 58.400125,43.514994 58.400125,43.7992942 L58.4211798,43.7992942 C58.621381,43.3773557 59.0436804,42.8607308 59.7931114,42.8607308 C60.7107403,42.8607308 61.005628,43.4304138 61.1639602,43.7261437 C61.4280477,43.3457133 61.8187047,42.8607308 62.6202313,42.8607308 C63.8014665,42.8607308 64.1808141,43.704728 64.1808141,45.0225186 L64.1808141,48.377212 L62.8733703,48.377212 L62.8733703,44.9497291 C62.8733703,44.2741704 62.6618597,43.9365715 62.1771178,43.9365715 C61.5962456,43.9365715 61.2905297,44.4851998 61.2905297,45.0871268 L61.2905297,48.377212 L59.9829657,48.377212 L59.9829657,44.9497291 C59.9829657,44.2741704 59.7719363,43.9365715 59.2868334,43.9365715 C58.7059612,43.9365715 58.4003656,44.4851998 58.4003656,45.0871268 L58.4003656,48.3773323 Z M54.6332385,45.1915587 C54.6332385,44.2319405 54.3170554,43.7469579 53.7265581,43.7469579 C53.0413744,43.7469579 52.7561117,44.4742513 52.7561117,45.1915587 L54.6332385,45.1915587 Z M55.6253413,48.1137261 C55.3513881,48.2303096 54.7819457,48.4627547 54.0011129,48.4627547 C52.2494728,48.4627547 51.4901761,47.206805 51.4901761,45.7400666 C51.4901761,44.1164398 52.3448812,42.8606105 53.7266785,42.8606105 C54.8974464,42.8606105 55.8995351,43.5463958 55.8995351,45.762084 L55.8995351,46.0145011 L52.7562321,46.0145011 C52.7562321,46.9430785 53.1249921,47.5016927 54.1375481,47.5016927 C54.9396763,47.5016927 55.3193848,47.2592616 55.5621769,47.0801152 L55.6253413,48.1137261 Z M49.4875626,48.3773323 L48.1799986,48.3773323 L48.1799986,43.8416444 C48.1799986,43.5040455 48.1695313,43.1872608 48.1372874,42.94495 L49.3188835,42.94495 C49.3294711,43.271841 49.3614744,43.6093196 49.3614744,43.9365715 L49.3821682,43.9365715 C49.5405004,43.514994 49.9513701,42.8607308 50.7646874,42.8607308 C50.8484254,42.8607308 50.9125523,42.8817856 50.9857028,42.8927341 L50.9857028,44.1157179 C50.8696005,44.0844365 50.7543405,44.0633817 50.6169428,44.0633817 C50.0791427,44.0633817 49.4875626,44.3908742 49.4875626,45.40331 L49.4875626,48.3773323 Z M43.6978501,45.6457411 C43.6978501,46.6680425 43.961697,47.5019334 44.7314609,47.5019334 C45.4915998,47.5019334 45.6915604,46.8692062 45.6915604,45.6147003 C45.6915604,44.5271891 45.4384214,43.8205896 44.7101655,43.8205896 C43.9926174,43.8205896 43.6978501,44.5910754 43.6978501,45.6457411 Z M43.6978501,40.4663775 L43.6978501,43.726264 L43.7184236,43.726264 C43.9088794,43.3042053 44.3406836,42.8608511 45.1222382,42.8608511 C46.2927655,42.8608511 47.0000869,43.8947025 47.0000869,45.6667959 C47.0000869,47.1746814 46.4399086,48.462875 45.0907162,48.462875 C44.2458768,48.462875 43.8558213,47.9972629 43.6456341,47.5338164 L43.6130293,47.5338164 C43.6130293,47.9032983 43.5928166,48.2188798 43.5710399,48.3773323 L42.3473342,48.3773323 C42.3788563,48.1766499 42.3895642,47.8395322 42.3895642,47.4495971 L42.3895642,40.4663775 L43.6978501,40.4663775 Z M39.1201728,47.8824841 C40.4812763,47.8824841 40.4812763,46.1196548 40.4812763,45.6880913 C40.4812763,45.2556856 40.4812763,43.493458 39.1201728,43.493458 C37.7590694,43.493458 37.7590694,45.2556856 37.7590694,45.6880913 C37.7590694,46.1196548 37.7590694,47.8824841 39.1201728,47.8824841 Z M39.1201728,48.4510843 C37.5481604,48.4510843 37.1056484,47.037765 37.1056484,45.6880913 C37.1056484,44.3369739 37.5481604,42.9237749 39.1201728,42.9237749 C40.6923056,42.9237749 41.1344567,44.3368536 41.1344567,45.6880913 C41.134577,47.037765 40.6924259,48.4510843 39.1201728,48.4510843 Z M35.1877354,42.9982488 L35.7995281,42.9982488 L35.7995281,48.3773323 L35.1877354,48.3773323 L35.1877354,42.9982488 Z M35.1244507,40.8566735 L35.8626925,40.8566735 L35.8626925,41.8055839 L35.1244507,41.8055839 L35.1244507,40.8566735 Z M30.5158529,45.6880913 C30.5158529,46.130483 30.5158529,47.8812809 31.7388368,47.8812809 C32.7826742,47.8812809 33.0679369,46.848392 33.0679369,45.7511355 C33.0679369,45.0335874 33.0679369,43.493458 31.749665,43.493458 C30.832397,43.493458 30.5158529,44.4423683 30.5158529,45.6880913 Z M33.6374996,46.5954936 C33.6374996,47.4390096 33.6590357,47.9138858 33.6800905,48.3773323 L33.1101668,48.3773323 L33.1101668,47.6394514 L33.0885104,47.6394514 C32.6889502,48.1453684 32.3508701,48.4510843 31.6762739,48.4510843 C29.9248744,48.4510843 29.8614694,46.2362383 29.8614694,45.4872886 C29.8614694,44.464145 30.2944766,42.9237749 31.6446315,42.9237749 C32.3302965,42.9237749 32.729977,43.198089 33.0050131,43.6940201 L33.0263085,43.6940201 L33.0263085,40.4663775 L33.6377403,40.4663775 L33.6377403,46.5954936 L33.6374996,46.5954936 Z M28.0583352,45.6663146 C26.7927605,45.6663146 25.7272667,45.6663146 25.7272667,46.8906219 C25.7272667,47.3438418 26.0645046,47.8812809 26.7188882,47.8812809 C27.0040305,47.8812809 28.0582149,47.7654193 28.0582149,46.2996434 L28.0582149,45.6663146 L28.0583352,45.6663146 Z M28.6286198,47.1746814 C28.6286198,47.5756854 28.6599013,47.9768096 28.6917843,48.3773323 L28.1429154,48.3773323 L28.1003245,47.6073277 L28.0796306,47.6073277 C27.7102691,48.1987875 27.2675164,48.4512046 26.5706623,48.4512046 C25.7374933,48.4512046 25.073244,47.7655396 25.073244,46.8906219 C25.073244,45.1705039 26.8980345,45.1394631 27.6681594,45.1394631 L28.0582149,45.1394631 C28.0582149,44.4642653 28.0582149,43.493458 26.9401442,43.493458 C26.2224758,43.493458 25.653635,43.9996157 25.5901096,44.0526738 L25.4954231,43.3986512 C26.0017011,43.1239761 26.3812893,42.9243765 26.9719069,42.9243765 C28.6284995,42.9243765 28.6284995,44.3157988 28.6284995,44.7064558 L28.6284995,47.1746814 L28.6286198,47.1746814 Z M22.6378639,44.6644665 C22.6378639,44.1054913 22.60562,43.5567427 22.5953933,42.9981285 L23.1649561,42.9981285 C23.175664,43.3139507 23.1968391,43.6308557 23.2074267,43.8523523 L23.2283612,43.8523523 C23.6187776,43.0817461 24.0719974,42.9237749 24.6629759,42.9237749 L24.6629759,43.5785194 C23.6925296,43.5785194 23.249416,43.9994954 23.249416,44.9908762 L23.249416,48.377212 L22.6378639,48.377212 L22.6378639,44.6644665 Z M14.4529559,40.4562712 C12.2465318,40.4562712 10.4565118,42.2456896 10.4565118,44.4537981 C10.4565118,46.4128581 11.8654999,48.0415381 13.7253015,48.3844308 L13.7253015,44.4527152 L15.1820539,44.4527152 L15.1820539,48.3844308 C17.0411338,48.0415381 18.4500015,46.4128581 18.4500015,44.4537981 C18.4498812,42.2456896 16.6603424,40.4562712 14.4529559,40.4562712 Z M14.4529559,39 C17.4651175,39 19.9067539,41.4421176 19.9067539,44.4536777 C19.9067539,47.4658394 17.4652378,49.9075961 14.4529559,49.9075961 C11.4416364,49.9075961 9,47.4658394 9,44.4536777 C9,41.4421176 11.4415161,39 14.4529559,39 Z" id="Logo"></path>
        </g>
    </g>
</svg>