<?xml version="1.0" encoding="UTF-8"?>
<svg width="88px" height="88px" viewBox="0 0 88 88" version="1.1" xmlns="http://www.w3.org/2000/svg" xmlns:xlink="http://www.w3.org/1999/xlink">
    <title>Logo</title>
    <g id="Channels" stroke="none" stroke-width="1" fill="none" fill-rule="evenodd">
        <g id="Das-Erste" fill="#FFFFFF">
            <path d="M67.896116,63.9581307 L67.8955079,63.9575226 C67.1252568,63.9575226 66.588108,64.5265963 66.4867592,65.3992098 L69.147166,65.3992098 C69.1762024,64.498168 68.68086,63.9581307 67.896116,63.9581307 Z M67.9594591,62.5803947 L67.9595351,62.5803947 C70.06678,62.5803947 71,64.0233994 71,65.8108887 C71,66.0579265 70.980237,66.3449717 70.936657,66.6501584 L66.455113,66.6501584 C66.4405695,68.0016957 67.1134244,68.6613246 68.4504181,68.6613246 C69.162495,68.6613246 69.9316313,68.5085767 70.5565482,68.2179234 L70.7307415,69.6431414 C69.9604904,69.948328 69.0505299,70.118214 68.1494881,70.118214 C65.853329,70.118214 64.5706075,68.9717054 64.5706075,66.4285085 C64.5706075,64.2195094 65.7940906,62.5803947 67.9594591,62.5803947 Z M62.1002298,60.0308382 L62.1002804,60.0308382 L62.1002804,62.754588 L63.8580746,62.754588 L63.8580746,64.179806 L62.1002804,64.179806 L62.1002804,67.3469569 C62.1002804,68.2770453 62.3160014,68.5504743 62.9554112,68.5504743 C63.2605725,68.5504743 63.5964375,68.4964503 63.8580239,68.4237883 L63.8580239,69.9282103 C63.3929341,70.0444726 62.8622716,70.1182394 62.3536018,70.1182394 C60.7550267,70.1182394 60.2474718,69.5394869 60.2474718,67.8537011 L60.2474718,64.179806 L58.9964218,64.179806 L58.9964218,62.754588 L60.2316107,62.754588 L60.2316107,60.5217719 L62.1002298,60.0308382 Z M56.7953786,62.5803947 L56.7952772,62.5803187 C57.2167364,62.5803187 57.6736929,62.6501785 58.1096702,62.7228405 L58.0621883,64.17973 C57.6552727,64.0634676 57.1666852,63.9897009 56.7161745,63.9897009 C55.9895439,63.9897009 55.6393431,64.283496 55.6393431,64.7340067 C55.6393431,65.9111227 58.6164651,65.3871999 58.6164651,67.726939 C58.6164651,69.1511435 57.3624253,70.1181634 55.3859711,70.1181634 C54.8628084,70.1181634 54.3307828,70.0641394 53.8657386,69.9914773 L53.9132205,68.4554344 C54.3637161,68.5716967 54.9128747,68.677135 55.4651245,68.677135 C56.177247,68.677135 56.6528315,68.380786 56.6528315,67.9012084 C56.6528315,66.6223381 53.7232421,67.3484518 53.7232421,64.8924149 C53.7232421,63.6280883 54.7608008,62.5803947 56.7953786,62.5803947 Z M53.216498,62.5803947 L53.216498,62.5803441 L53.1214835,64.4172916 C51.784439,64.1411667 51.1103173,65.0088647 51.1103173,67.0143554 L51.1103173,69.9756669 L49.2575593,69.9756669 L49.2575593,62.7545627 L51.0153534,62.7545627 C51.0153534,63.1178983 50.9758628,63.6870226 50.8886674,64.1956417 L50.9203389,64.1956417 C51.2690802,63.2801071 51.9666642,62.4786658 53.216498,62.5803947 Z M42.4005508,60.1575496 L42.4005508,60.1575496 L47.7370734,60.1575496 L47.7370734,61.7411757 L44.30074,61.7411757 L44.30074,64.1640209 L47.5629055,64.1640209 L47.5629055,65.7000638 L44.30074,65.7000638 L44.30074,68.3604706 L47.7370734,68.3604706 L47.7370734,69.9757176 L42.4005508,69.9757176 L42.4005508,60.1575496 Z M36.3829639,62.5803947 L36.3829639,62.5803187 C36.804423,62.5803187 37.2613796,62.6501785 37.6973569,62.7228405 L37.6340139,64.17973 C37.2270983,64.0634676 36.7543212,63.9897009 36.3038105,63.9897009 C35.5771799,63.9897009 35.2269792,64.283496 35.2269792,64.7340067 C35.2269792,65.9111227 38.1882906,65.3871999 38.1882906,67.726939 C38.1882906,69.1511435 36.9500613,70.1181634 34.9736071,70.1181634 C34.4504444,70.1181634 33.9184188,70.0641394 33.4533746,69.9914773 L33.5008565,68.4554344 C33.9513521,68.5716967 34.5005107,68.677135 35.0527605,68.677135 C35.7648577,68.677135 36.2246064,68.380786 36.2246064,67.9012084 C36.2246064,66.6223381 33.3108275,67.3484518 33.3108275,64.8924149 C33.3108275,63.6280883 34.3483861,62.5803947 36.3829639,62.5803947 Z M30.1122584,66.7768951 L30.1123091,66.7769204 C28.1503781,66.7769204 27.7210847,67.3358086 27.7210847,67.9170948 C27.7210847,68.3821136 28.0385093,68.6930214 28.5762155,68.6930214 C29.4917502,68.6930214 30.1122584,67.8230431 30.1122584,66.9510884 L30.1122584,66.7768951 Z M29.0037555,62.5803947 L29.0037302,62.5803187 C31.3289764,62.5803187 31.9808521,63.5286904 31.9808521,65.0982291 L31.9808521,68.1070225 C31.9808521,68.6883087 31.9992469,69.3798118 32.028334,69.9756416 L30.2705399,69.9756416 C30.2705399,69.5542331 30.2757543,69.1341625 30.3338829,68.7563138 L30.3180725,68.740478 C29.9692805,69.5543091 29.0814648,70.118214 28.0060523,70.118214 C26.698095,70.118214 25.9474042,69.3805466 25.9474042,68.2179234 C25.9474042,66.488507 27.6561961,65.5733271 30.112233,65.5733271 L30.112233,65.1774332 C30.112233,64.4217611 29.7492015,64.0214484 28.7028762,64.0214484 C28.0489229,64.0214484 27.1912584,64.2427537 26.580885,64.5915356 L26.4066917,63.0396316 C27.1333122,62.7780452 28.0736773,62.5803947 29.0037555,62.5803947 Z M19.4070347,61.6935925 L19.4070347,61.6938458 C19.2126882,61.7011125 19.037071,61.7109839 18.8844802,61.7255173 L18.8844802,68.3446095 C19.1460615,68.3882098 19.5359302,68.4079525 19.9137789,68.4079525 C21.7593918,68.4079525 23.0967403,67.3760187 23.0967403,65.0507725 C23.0967403,62.9435276 22.2785005,61.6935925 20.0404649,61.6935925 C19.8224737,61.6935925 19.6014066,61.6863257 19.4070347,61.6935925 Z M20.167151,60.0942066 L20.1674043,60.0939278 C23.2047275,60.0939278 25.1398314,61.4479482 25.1398314,64.8921869 C25.1398314,68.2637585 22.9209507,70.0229715 19.7237498,70.0229715 C18.7064609,70.0229715 17.8283747,69.9886953 17,69.9596284 L17,60.1733853 C17.7702511,60.1443185 18.9609479,60.0942066 20.167151,60.0942066 Z M50.770696,24.845122 L50.7710571,24.8449053 L34.093764,30.8477632 L34.093764,34.9549817 L39.5550106,33.0368113 L39.5550106,45.6296336 L50.770696,41.5224151 L50.770696,24.845122 Z M43.5717439,18.007244 L43.5710218,18.007244 C48.115093,17.8739047 52.5195513,19.5860413 55.7805385,22.7534259 C59.0415256,25.9208106 60.8811745,30.2735519 60.8801951,34.8195789 C60.6905607,43.9690033 53.2192493,51.2870664 44.0678598,51.2870664 C34.9164704,51.2870664 27.445159,43.9690033 27.2555245,34.8195789 C27.2534612,25.7254962 34.4816774,18.2774965 43.5717439,18.007244 Z" id="Logo"></path>
        </g>
    </g>
</svg>