<?xml version="1.0" encoding="UTF-8"?>
<svg width="88px" height="88px" viewBox="0 0 88 88" version="1.1" xmlns="http://www.w3.org/2000/svg" xmlns:xlink="http://www.w3.org/1999/xlink">
    <title>Logo</title>
    <g id="Channels" stroke="none" stroke-width="1" fill="none" fill-rule="evenodd">
        <g id="SWR" fill="#FFFFFF">
            <path d="M74.9953333,40.867385 L72.7417346,41.7022509 L72.7417346,39.0953844 L71.6257643,39.512368 L71.6257643,38.6508115 L74.9953333,37.398962 L74.9953333,40.867385 Z M73.6504713,36.5079292 C72.0738419,36.5079292 70.7930552,37.8317623 70.7930552,39.4644688 C70.7930552,41.0971753 72.0738419,42.4206489 73.6504713,42.4206489 C75.2290778,42.4206489 76.5098645,41.0971753 76.5098645,39.4644688 C76.5098645,37.8317623 75.2290778,36.5079292 73.6504713,36.5079292 Z M73.6504713,36 C75.500207,36 77,37.5510173 77,39.4644688 C77,41.3782797 75.500207,42.929297 73.6504713,42.929297 C71.8007356,42.929297 70.3031893,41.3782797 70.3031893,39.4644688 C70.3032792,37.5510173 71.8007356,36 73.6504713,36 Z M62.8375651,36.637248 L70.680182,44.853892 L62.8375651,53.0704462 L62.8375651,47.7243389 L65.6010701,44.8538022 L62.8375651,41.9829958 L62.8375651,36.637248 Z M55.7910813,36.637248 L63.6334287,44.853892 L55.7910813,53.0704462 L55.7910813,47.7243389 L58.5545863,44.8538022 L55.7910813,41.9829958 L55.7910813,36.637248 Z M48.9734892,42.0207401 C48.9734892,40.8607348 48.3181779,40.1601304 46.7687782,40.1601304 C46.4315967,40.1601304 46.0497511,40.1821479 45.857705,40.2041653 L45.857705,43.990718 C46.027464,44.0127355 46.3676112,44.0347529 46.6853815,44.0347529 C48.0840739,44.0347529 48.9734892,43.2683658 48.9734892,42.0207401 Z M53.3746433,52.2433988 L49.3746562,52.2433988 L45.9856758,46.4643115 L45.8576151,46.4643115 L45.8576151,52.2433988 L42.5694657,52.2433988 L42.5694657,37.456477 C43.7714389,37.3684971 45.3105937,37.3464796 47.0251692,37.3464796 C50.3871894,37.3464796 52.3476415,38.5996771 52.3476415,41.7364902 C52.3476415,43.7283958 51.1679553,45.3480715 49.2689724,45.8296696 C49.6482118,46.398349 50.0076804,46.94564 50.3675085,47.492931 L53.3746433,52.2433988 Z M38.4513931,37.4580048 L38.4513931,37.4580048 L41.7665925,37.4580048 L39.2519297,52.2505881 L35.5376303,52.2505881 L33.9268513,42.7564825 L32.3160724,52.2505881 L28.6041095,52.2505881 L26.0868406,37.4580048 L29.4022197,37.4580048 L30.8379374,46.6152883 L32.2714084,37.4580048 L35.5841815,37.4580048 L37.0175626,46.6152883 L38.4513931,37.4580048 Z M20.3749739,52.4669883 C19.3900299,52.4669883 18.3554792,52.3569909 17.4440465,52.1373555 L17.5917881,48.8974648 C18.4047264,49.2040915 19.6116423,49.5229402 20.6215694,49.5229402 C21.8383707,49.5229402 22.7077456,48.9969477 22.7077456,47.9450527 C22.7077456,45.4251776 17.1239397,46.6734324 17.0008216,41.7656971 C16.9515744,38.9861059 19.1191703,37.1501199 22.6853687,37.1501199 C23.4441171,37.1501199 24.3923054,37.2374708 25.2765084,37.4124421 L25.269319,40.4300914 C24.4688723,40.1890677 23.4021491,39.9688033 22.560004,39.9688033 C21.1879122,39.9688033 20.523075,40.5824162 20.523075,41.4150354 C20.523075,43.7155448 26.2224501,42.83934 26.2224501,47.4630951 C26.2224501,50.3358785 24.013066,52.4669883 20.3749739,52.4669883 L20.3749739,52.4669883 Z" id="Logo"></path>
        </g>
    </g>
</svg>